<svg xmlns="http://www.w3.org/2000/svg" width="250" height="90.48" viewBox="0 0 250 90.48"><defs><style>.cls-1{fill:#21abde;}.cls-2{fill:#18264f;}</style></defs><g id="Layer_2" data-name="Layer 2"><g id="Layer_1-2" data-name="Layer 1"><path class="cls-1" d="M111.18,28.51a14.87,14.87,0,0,1-10.64-4.06,13.39,13.39,0,0,1-4.28-10.12,13.62,13.62,0,0,1,4.28-10.19,15.74,15.74,0,0,1,21.28,0,13.62,13.62,0,0,1,4.28,10.19,13.39,13.39,0,0,1-4.28,10.12A14.86,14.86,0,0,1,111.18,28.51Z"/><path class="cls-2" d="M139.38,43.51a11.47,11.47,0,0,1-8.21-3.14,10.32,10.32,0,0,1-3.31-7.82,10.49,10.49,0,0,1,3.31-7.87,12.14,12.14,0,0,1,16.43,0,10.53,10.53,0,0,1,3.31,7.87,10.36,10.36,0,0,1-3.31,7.82A11.51,11.51,0,0,1,139.38,43.51Z"/><path class="cls-2" d="M156.09,68.05A3.09,3.09,0,0,1,151.83,67l-3.76-6.27V90.48h-17.3V51.92h17.3a3.08,3.08,0,0,1,2.87,1.5l6.22,10.36A3.1,3.1,0,0,1,156.09,68.05Z"/><path class="cls-1" d="M34,3.77H57.73l34,86.71H67.66l-6.73-20H29.32l-6.61,20H0ZM55,53.06,45.07,23.51,35.14,53.06Z"/><path class="cls-2" d="M166.25,3.77h34.57q23.73,0,36.46,11.18T250,47.13q0,20.53-13.12,31.94T200.25,90.48h-34Zm22.59,68.12h10.61q26.93,0,26.93-24.76T199.45,22.37H188.84Z"/><path class="cls-1" d="M121.45,38.24V90.48H100.91V48l-5.32,9.65a3.73,3.73,0,1,1-6.53-3.62l7.67-13.88a3.69,3.69,0,0,1,4.18-1.81v-.12Z"/></g></g></svg>