<svg xmlns="http://www.w3.org/2000/svg" width="160" height="160" viewBox="0 0 160 160"><defs><style>.cls-1{fill:#25a569;}.cls-2{fill:#fff;}</style></defs><g id="Layer_2" data-name="Layer 2"><g id="Layer_1-2" data-name="Layer 1"><polygon class="cls-1" points="0 0 160 160 0 160 0 0"/><path class="cls-2" d="M46.42,136.47A24.27,24.27,0,0,1,35.25,134a18.47,18.47,0,0,1-7.63-7.18,21.29,21.29,0,0,1-2.78-11A21.52,21.52,0,0,1,27.54,105a19.54,19.54,0,0,1,7.71-7.56,23.57,23.57,0,0,1,11.59-2.77,27.11,27.11,0,0,1,6.76.88A21.89,21.89,0,0,1,59.5,98l-1.33,6.9A25.15,25.15,0,0,0,47,102a14.68,14.68,0,0,0-7.05,1.66A12.07,12.07,0,0,0,35,108.38a14.51,14.51,0,0,0-1.76,7.26q0,6.26,3.74,9.91t10.09,3.66a24.32,24.32,0,0,0,5.93-.8A27.92,27.92,0,0,0,59,126.17l.85,7a23.72,23.72,0,0,1-6.25,2.41A30.2,30.2,0,0,1,46.42,136.47Z"/></g></g></svg>