<svg xmlns="http://www.w3.org/2000/svg" viewBox="0 0 938.79 190.67"><defs><style>.cls-1{fill:#28a569;}.cls-2{fill:#19264f;}</style></defs><title>TS logo svg</title><g id="Layer_2" data-name="Layer 2"><g id="Layer_1-2" data-name="Layer 1"><path class="cls-1" d="M4,91.7H3.69a3.72,3.72,0,0,1-3.4-4,95.28,95.28,0,0,1,17-46.82,3.73,3.73,0,0,1,6.11,4.28A87.7,87.7,0,0,0,7.72,88.29,3.74,3.74,0,0,1,4,91.7Z"/><path class="cls-1" d="M30.6,33.63A3.73,3.73,0,0,1,28,27.24a95.88,95.88,0,0,1,95.4-22.92,3.72,3.72,0,1,1-2.22,7.11,88.2,88.2,0,0,0-88,21.14A3.69,3.69,0,0,1,30.6,33.63Z"/><path class="cls-1" d="M42.94,175.44a3.74,3.74,0,0,1-2.11-.65A96,96,0,0,1,4.94,128.66,94.94,94.94,0,0,1,0,108.93a3.72,3.72,0,1,1,7.38-1A87.79,87.79,0,0,0,20,142.57a89,89,0,0,0,25,26.07,3.73,3.73,0,0,1-2.1,6.8Z"/><path class="cls-1" d="M181.57,66.35A3.74,3.74,0,0,1,178.09,64a88.62,88.62,0,0,0-39.62-45.47A3.73,3.73,0,0,1,142.08,12a96.11,96.11,0,0,1,43,49.31,3.74,3.74,0,0,1-2.14,4.82A3.7,3.7,0,0,1,181.57,66.35Z"/><path class="cls-1" d="M160.72,162.94a3.72,3.72,0,0,1-2.66-6.33,88,88,0,0,0,25.11-61.68,89.83,89.83,0,0,0-.83-12.17,3.73,3.73,0,0,1,7.38-1,96.78,96.78,0,0,1,.9,13.19,95.46,95.46,0,0,1-27.23,66.88A3.72,3.72,0,0,1,160.72,162.94Z"/><path class="cls-1" d="M95.7,190.67a95.4,95.4,0,0,1-34.47-6.39,3.72,3.72,0,1,1,2.68-6.95,88.32,88.32,0,0,0,74.56-5.14,3.72,3.72,0,1,1,3.61,6.51,94.92,94.92,0,0,1-22,8.85A96.14,96.14,0,0,1,95.7,190.67Z"/><path class="cls-1" d="M82.2,169.54a4,4,0,0,1-.76-.08,74.94,74.94,0,0,1-27.6-11.87,75.76,75.76,0,0,1-20.58-21.26,3.73,3.73,0,1,1,6.27-4,68.31,68.31,0,0,0,18.55,19.18A67.6,67.6,0,0,0,83,162.16a3.73,3.73,0,0,1-.76,7.38Z"/><path class="cls-1" d="M101,170.82a3.73,3.73,0,0,1-.29-7.44,68.3,68.3,0,0,0,55.38-37,3.73,3.73,0,0,1,6.64,3.39,75.63,75.63,0,0,1-61.43,41.06Z"/><path class="cls-1" d="M166.9,112.15a4,4,0,0,1-.68-.06,3.73,3.73,0,0,1-3-4.34,68.21,68.21,0,0,0-6.31-43.43,3.73,3.73,0,1,1,6.63-3.4,74.94,74.94,0,0,1,6.11,16.44,76.3,76.3,0,0,1,.9,31.74A3.73,3.73,0,0,1,166.9,112.15Z"/><path class="cls-1" d="M145.5,46.72a3.71,3.71,0,0,1-2.55-1,68,68,0,0,0-35.21-17.63A3.72,3.72,0,1,1,109,20.73a75.31,75.31,0,0,1,39.05,19.55,3.73,3.73,0,0,1,.16,5.27A3.78,3.78,0,0,1,145.5,46.72Z"/><path class="cls-1" d="M62.57,34.93a3.72,3.72,0,0,1-1.7-7,75.12,75.12,0,0,1,27.54-7.95,3.73,3.73,0,0,1,.67,7.42,67.84,67.84,0,0,0-24.81,7.16A3.73,3.73,0,0,1,62.57,34.93Z"/><path class="cls-1" d="M26.25,119.51a3.73,3.73,0,0,1-3.57-2.67A75.81,75.81,0,0,1,40.23,43.38a3.73,3.73,0,1,1,5.42,5.12,68.31,68.31,0,0,0-15.82,66.23,3.73,3.73,0,0,1-2.52,4.63A3.88,3.88,0,0,1,26.25,119.51Z"/><path class="cls-1" d="M95.29,151.41a55.49,55.49,0,0,1-23.66-5.22,3.72,3.72,0,1,1,3.15-6.75,48.75,48.75,0,0,0,44.82-2,3.73,3.73,0,1,1,3.73,6.45A56.08,56.08,0,0,1,95.29,151.41Z"/><path class="cls-1" d="M140.27,125.85a3.64,3.64,0,0,1-1.9-.53,3.73,3.73,0,0,1-1.3-5.11,48.45,48.45,0,0,0,6.84-24.87,49.26,49.26,0,0,0-.38-6.08,3.73,3.73,0,0,1,7.4-.93,56.33,56.33,0,0,1-7.46,35.7A3.71,3.71,0,0,1,140.27,125.85Z"/><path class="cls-1" d="M141.1,73.71a3.72,3.72,0,0,1-3.26-1.92A48.6,48.6,0,0,0,95.29,46.72a49.53,49.53,0,0,0-6.09.37,3.55,3.55,0,0,1-.46,0,3.72,3.72,0,0,1-.46-7.42,56.07,56.07,0,0,1,56.07,28.47,3.73,3.73,0,0,1-1.45,5.07A3.67,3.67,0,0,1,141.1,73.71Z"/><path class="cls-1" d="M49.94,72.89a3.69,3.69,0,0,1-1.86-.5,3.73,3.73,0,0,1-1.36-5.09A56.3,56.3,0,0,1,67.25,46.77,3.73,3.73,0,1,1,71,53.22,48.9,48.9,0,0,0,53.17,71,3.73,3.73,0,0,1,49.94,72.89Z"/><path class="cls-1" d="M56.84,134.59a3.71,3.71,0,0,1-2.73-1.19,55.9,55.9,0,0,1-14.9-38.06,57.43,57.43,0,0,1,.55-7.88,3.73,3.73,0,0,1,7.38,1,50.28,50.28,0,0,0-.48,6.84,48.48,48.48,0,0,0,12.92,33,3.72,3.72,0,0,1-.21,5.26A3.66,3.66,0,0,1,56.84,134.59Z"/><path class="cls-1" d="M69.58,80.22a3.73,3.73,0,0,1-4.24-5.66A36.19,36.19,0,0,1,83.8,60.75a36.66,36.66,0,0,1,7.14-1.6,3.73,3.73,0,0,1,.9,7.4,29.41,29.41,0,0,0-5.69,1.27,28.75,28.75,0,0,0-14.68,11A3.74,3.74,0,0,1,69.58,80.22Z"/><path class="cls-1" d="M129,95a4.52,4.52,0,0,1-.73.16,3.73,3.73,0,0,1-4.15-3.25,29.09,29.09,0,0,0-12.26-20.37,3.73,3.73,0,1,1,4.24-6.13A36.6,36.6,0,0,1,131.48,91,3.75,3.75,0,0,1,129,95Z"/><path class="cls-1" d="M106.78,129.92a36.78,36.78,0,0,1-7.15,1.61,3.73,3.73,0,0,1-.89-7.4,29.09,29.09,0,0,0,20.37-12.26,3.72,3.72,0,1,1,6.12,4.24A36.11,36.11,0,0,1,106.78,129.92Z"/><path class="cls-1" d="M77.81,125.76a3.73,3.73,0,0,1-3.3-.48A36.17,36.17,0,0,1,60.7,106.83a36.75,36.75,0,0,1-1.6-7.15,3.73,3.73,0,0,1,7.4-.89,29.58,29.58,0,0,0,1.27,5.69,28.79,28.79,0,0,0,11,14.68,3.72,3.72,0,0,1,.94,5.18A3.76,3.76,0,0,1,77.81,125.76Z"/><path class="cls-1" d="M95.29,89.7a5.64,5.64,0,1,1-5.64,5.64,5.64,5.64,0,0,1,5.64-5.64m0-7.45a13.09,13.09,0,1,0,13.08,13.09A13.09,13.09,0,0,0,95.29,82.25Z"/><path class="cls-2" d="M269.23,56.14H240.47v-20h82.44v20H294.16v73.8H269.23Z"/><path class="cls-2" d="M317.23,66.26h21.6l.25,9.5a18.66,18.66,0,0,1,6.41-8A16.5,16.5,0,0,1,355,65a18.08,18.08,0,0,1,7.28,1.36l-1.73,21a20.84,20.84,0,0,0-8.14-1.6q-6.42,0-9.69,4.26t-3.27,12.65v27.27H317.23Z"/><path class="cls-2" d="M388.19,131.91q-11,0-16.59-6.85T366,105V66.26h22.21v34.55q0,11.37,8.52,11.36a8.4,8.4,0,0,0,7-3.15q2.47-3.15,2.47-9.07V66.26h22.22v63.68H406.71l-.25-7.9a16.51,16.51,0,0,1-7.16,7.28A23,23,0,0,1,388.19,131.91Z"/><path class="cls-2" d="M460.14,131.91a60.16,60.16,0,0,1-14.5-1.72,33.56,33.56,0,0,1-11-4.57l2.47-16.17a38.07,38.07,0,0,0,10.36,4.63,41.07,41.07,0,0,0,11.36,1.67c5.34,0,8-1.28,8-3.83a3.44,3.44,0,0,0-1.85-3.08,33.87,33.87,0,0,0-7.53-2.6q-11.73-3.08-16.72-8t-5-13.57q0-9.51,7.28-14.94t20-5.43a59.55,59.55,0,0,1,12.65,1.36,36.41,36.41,0,0,1,10.31,3.7l-2.22,15.92a47,47,0,0,0-9.63-3.51,40.06,40.06,0,0,0-9.75-1.3q-6.79,0-6.79,3.7a3.54,3.54,0,0,0,2,3.15,31,31,0,0,0,7.52,2.53q11.49,2.83,16.67,8t5.18,13.82q0,9.63-7.53,14.94T460.14,131.91Z"/><path class="cls-2" d="M524.69,131.91q-12.11,0-18.08-6.17t-6-18.88V84.15H489.76V66.26h10.86V49.85h22.09V66.26h18V84.15h-18V101.8q0,5.69,1.85,8t6.42,2.35a21.38,21.38,0,0,0,10.37-2.35l2.22,18.39a29.65,29.65,0,0,1-8.21,2.72A55.68,55.68,0,0,1,524.69,131.91Z"/><path class="cls-2" d="M579.48,131.91a80.61,80.61,0,0,1-12.34-1,72.11,72.11,0,0,1-11.79-2.84,37,37,0,0,1-8.94-4.2l2.22-20.11a49.53,49.53,0,0,0,13.94,6.11,58.53,58.53,0,0,0,15.8,2.28q6.92,0,10.61-2.28a7.23,7.23,0,0,0,3.71-6.48,6.08,6.08,0,0,0-1.55-4.2A14.27,14.27,0,0,0,586.21,96a78.16,78.16,0,0,0-9.57-3.21q-15.18-4.32-21.9-11.41T548,62.68q0-13.2,9.56-20.86t26.11-7.65a65.42,65.42,0,0,1,15.85,2,47.36,47.36,0,0,1,13.4,5.3l-3.21,19.38a47,47,0,0,0-12-5,49.6,49.6,0,0,0-13-1.91q-12.82,0-12.83,8.14a6.14,6.14,0,0,0,2.9,5.31q2.89,2,11.29,4.44,16.66,4.81,23.88,11.91t7.22,18.7q0,14-9.93,21.72T579.48,131.91Z"/><path class="cls-2" d="M652.17,131.91q-12.09,0-18.08-6.17t-6-18.88V84.15H617.24V66.26H628.1V49.85h22.1V66.26h18V84.15h-18V101.8c0,3.79.61,6.46,1.85,8s3.37,2.35,6.41,2.35a21.38,21.38,0,0,0,10.37-2.35l2.22,18.39a29.54,29.54,0,0,1-8.21,2.72A55.68,55.68,0,0,1,652.17,131.91Z"/><path class="cls-2" d="M694.5,131.91q-9.87,0-15.61-5.36t-5.74-14.63A19.24,19.24,0,0,1,680,96.56q6.84-5.86,18-5.87a38.34,38.34,0,0,1,7.59.81,36.53,36.53,0,0,1,7.22,2.16q-.36-6.18-3.94-9.14t-10.62-3a34.34,34.34,0,0,0-19.5,6l-1.48-17.16a39.57,39.57,0,0,1,11-4.44,53.19,53.19,0,0,1,13.26-1.73q15.68,0,23.82,7.72t8.15,22.4v35.54H713.38l-.25-6.17Q706.85,131.92,694.5,131.91Zm6.91-14.68a10.21,10.21,0,0,0,7.71-3.15,13.72,13.72,0,0,0,3.52-8.58,25.75,25.75,0,0,0-9.75-1.85A11.4,11.4,0,0,0,696,105.5a5.83,5.83,0,0,0-2.53,4.94,6.19,6.19,0,0,0,2.16,4.94A8.53,8.53,0,0,0,701.41,117.23Z"/><path class="cls-2" d="M741.27,66.26h21.6l.24,7.77a17.11,17.11,0,0,1,7.22-7.22,23.52,23.52,0,0,1,11.17-2.53,21.56,21.56,0,0,1,11,2.72,19.33,19.33,0,0,1,7.4,7.77,19,19,0,0,1,7.9-7.71,25,25,0,0,1,12-2.78q11.12,0,16.85,6.85t5.73,20.06v38.75H820.25V95.38c0-3.86-.67-6.72-2-8.57S814.74,84,811.86,84a7.8,7.8,0,0,0-6.66,3.15c-1.57,2.09-2.35,5.12-2.35,9.07v33.69H780.76V95.38q0-5.79-2-8.57T772.49,84a7.93,7.93,0,0,0-6.78,3.15c-1.57,2.09-2.35,5.12-2.35,9.07v33.69H741.27Z"/><path class="cls-2" d="M850.86,66.26h20.86l.24,7.28a18.86,18.86,0,0,1,7.72-6.85,24.64,24.64,0,0,1,11-2.41,27.11,27.11,0,0,1,14.81,4.14A28.79,28.79,0,0,1,915.9,80.2a39,39,0,0,1,3.82,17.65,38.92,38.92,0,0,1-3.7,17.09,30.76,30.76,0,0,1-10.49,12.35,26.79,26.79,0,0,1-15.43,4.62,23.33,23.33,0,0,1-9.68-2,19.32,19.32,0,0,1-7.35-5.62v35.92H850.86Zm33.81,45.91a12.12,12.12,0,0,0,9.32-4,14.33,14.33,0,0,0,3.64-10.12A14.33,14.33,0,0,0,894,88a12.12,12.12,0,0,0-9.32-4,11.91,11.91,0,0,0-9.25,4,14.48,14.48,0,0,0-3.58,10.12,14.48,14.48,0,0,0,3.58,10.12A11.91,11.91,0,0,0,884.67,112.17Z"/><path class="cls-2" d="M924.46,65H922V63.26h7.06V65H926.6v6.31h-2.14Z"/><path class="cls-2" d="M929.78,63.26h2l2.33,4.62,2.28-4.62h2l.48,8h-2l-.19-4.84L934.87,70h-1.63l-1.78-3.46-.18,4.78h-2Z"/></g></g></svg>