<?xml version="1.0" encoding="utf-8"?>
<!-- Generator: Adobe Illustrator 24.1.3, SVG Export Plug-In . SVG Version: 6.00 Build 0)  -->
<svg version="1.1" id="Layer_1" xmlns="http://www.w3.org/2000/svg" xmlns:xlink="http://www.w3.org/1999/xlink" x="0px" y="0px"
	 viewBox="0 0 154.7 40" style="enable-background:new 0 0 154.7 40;" xml:space="preserve">
<style type="text/css">
	.st0{fill-rule:evenodd;clip-rule:evenodd;fill:#19264F;}
	.st1{filter:url(#Adobe_OpacityMaskFilter);}
	.st2{fill-rule:evenodd;clip-rule:evenodd;fill:#FFFFFF;}
	.st3{mask:url(#mask-2_1_);fill-rule:evenodd;clip-rule:evenodd;fill:#19264F;}
	.st4{filter:url(#Adobe_OpacityMaskFilter_1_);}
	.st5{mask:url(#mask-4_1_);fill-rule:evenodd;clip-rule:evenodd;fill:#19264F;}
	.st6{filter:url(#Adobe_OpacityMaskFilter_2_);}
	.st7{mask:url(#mask-6_1_);fill-rule:evenodd;clip-rule:evenodd;fill:#19264F;}
	.st8{filter:url(#Adobe_OpacityMaskFilter_3_);}
	.st9{mask:url(#mask-8_1_);fill-rule:evenodd;clip-rule:evenodd;fill:#19264F;}
	.st10{filter:url(#Adobe_OpacityMaskFilter_4_);}
	.st11{mask:url(#mask-10_1_);fill-rule:evenodd;clip-rule:evenodd;fill:#19264F;}
	.st12{filter:url(#Adobe_OpacityMaskFilter_5_);}
	.st13{mask:url(#mask-12_1_);fill-rule:evenodd;clip-rule:evenodd;fill:#19264F;}
	.st14{filter:url(#Adobe_OpacityMaskFilter_6_);}
	.st15{mask:url(#mask-14_1_);fill-rule:evenodd;clip-rule:evenodd;fill:#19264F;}
	.st16{filter:url(#Adobe_OpacityMaskFilter_7_);}
	.st17{mask:url(#mask-16_1_);fill-rule:evenodd;clip-rule:evenodd;fill:#19264F;}
	.st18{filter:url(#Adobe_OpacityMaskFilter_8_);}
	.st19{mask:url(#mask-18_1_);fill-rule:evenodd;clip-rule:evenodd;fill:#19264F;}
	.st20{filter:url(#Adobe_OpacityMaskFilter_9_);}
	.st21{mask:url(#mask-20_1_);fill-rule:evenodd;clip-rule:evenodd;fill:#19264F;}
	.st22{filter:url(#Adobe_OpacityMaskFilter_10_);}
	.st23{mask:url(#mask-22_1_);fill-rule:evenodd;clip-rule:evenodd;fill:#28A569;}
	.st24{filter:url(#Adobe_OpacityMaskFilter_11_);}
	.st25{mask:url(#mask-24_1_);fill-rule:evenodd;clip-rule:evenodd;fill:#28A569;}
	.st26{filter:url(#Adobe_OpacityMaskFilter_12_);}
	.st27{mask:url(#mask-26_1_);fill-rule:evenodd;clip-rule:evenodd;fill:#28A569;}
	.st28{filter:url(#Adobe_OpacityMaskFilter_13_);}
	.st29{mask:url(#mask-28_1_);fill-rule:evenodd;clip-rule:evenodd;fill:#28A569;}
	.st30{filter:url(#Adobe_OpacityMaskFilter_14_);}
	.st31{mask:url(#mask-30_1_);fill-rule:evenodd;clip-rule:evenodd;fill:#28A569;}
	.st32{filter:url(#Adobe_OpacityMaskFilter_15_);}
	.st33{mask:url(#mask-32_1_);fill-rule:evenodd;clip-rule:evenodd;fill:#28A569;}
	.st34{filter:url(#Adobe_OpacityMaskFilter_16_);}
	.st35{mask:url(#mask-34_1_);fill-rule:evenodd;clip-rule:evenodd;fill:#28A569;}
	.st36{filter:url(#Adobe_OpacityMaskFilter_17_);}
	.st37{mask:url(#mask-36_1_);fill-rule:evenodd;clip-rule:evenodd;fill:#28A569;}
	.st38{filter:url(#Adobe_OpacityMaskFilter_18_);}
	.st39{mask:url(#mask-38_1_);fill-rule:evenodd;clip-rule:evenodd;fill:#28A569;}
	.st40{filter:url(#Adobe_OpacityMaskFilter_19_);}
	.st41{mask:url(#mask-40_1_);fill-rule:evenodd;clip-rule:evenodd;fill:#28A569;}
	.st42{filter:url(#Adobe_OpacityMaskFilter_20_);}
	.st43{mask:url(#mask-42_1_);fill-rule:evenodd;clip-rule:evenodd;fill:#28A569;}
	.st44{filter:url(#Adobe_OpacityMaskFilter_21_);}
	.st45{mask:url(#mask-44_1_);fill-rule:evenodd;clip-rule:evenodd;fill:#28A569;}
	.st46{filter:url(#Adobe_OpacityMaskFilter_22_);}
	.st47{mask:url(#mask-46_1_);fill-rule:evenodd;clip-rule:evenodd;fill:#28A569;}
	.st48{filter:url(#Adobe_OpacityMaskFilter_23_);}
	.st49{mask:url(#mask-48_1_);fill-rule:evenodd;clip-rule:evenodd;fill:#28A569;}
	.st50{filter:url(#Adobe_OpacityMaskFilter_24_);}
	.st51{mask:url(#mask-50_1_);fill-rule:evenodd;clip-rule:evenodd;fill:#28A569;}
	.st52{filter:url(#Adobe_OpacityMaskFilter_25_);}
	.st53{mask:url(#mask-52_1_);fill-rule:evenodd;clip-rule:evenodd;fill:#28A569;}
	.st54{filter:url(#Adobe_OpacityMaskFilter_26_);}
	.st55{mask:url(#mask-54_1_);fill-rule:evenodd;clip-rule:evenodd;fill:#28A569;}
	.st56{filter:url(#Adobe_OpacityMaskFilter_27_);}
	.st57{mask:url(#mask-56_1_);fill-rule:evenodd;clip-rule:evenodd;fill:#28A569;}
	.st58{filter:url(#Adobe_OpacityMaskFilter_28_);}
	.st59{mask:url(#mask-58_1_);fill-rule:evenodd;clip-rule:evenodd;fill:#28A569;}
	.st60{filter:url(#Adobe_OpacityMaskFilter_29_);}
	.st61{mask:url(#mask-60_1_);fill-rule:evenodd;clip-rule:evenodd;fill:#28A569;}
	.st62{filter:url(#Adobe_OpacityMaskFilter_30_);}
	.st63{mask:url(#mask-62_1_);fill-rule:evenodd;clip-rule:evenodd;fill:#28A569;}
	.st64{filter:url(#Adobe_OpacityMaskFilter_31_);}
	.st65{mask:url(#mask-64_1_);fill-rule:evenodd;clip-rule:evenodd;fill:#28A569;}
	.st66{fill:#19264F;}
</style>
<desc>Created with Sketch.</desc>
<g id="Group-9" transform="translate(53.000000, 27.290000)">
	<g id="Group-5" transform="translate(0.000000, 1.090909)">
		<path id="Fill-1" class="st0" d="M3,0C2.7,0,2.5,0.1,2.4,0.3C2.3,0.5,2.2,0.8,2.2,1.2v0.3c0,0.4,0.1,0.8,0.2,1
			C2.5,2.7,2.7,2.8,3,2.8c0.5,0,0.7-0.5,0.7-1.4C3.7,0.5,3.5,0,3,0L3,0z M2.2-3.5v1.7c0,0.2,0,0.4,0,0.6c0,0.2,0,0.4-0.1,0.5h0.1
			c0.1-0.2,0.3-0.4,0.6-0.6C3-1.4,3.3-1.5,3.7-1.5c0.6,0,1.1,0.2,1.4,0.7c0.4,0.5,0.6,1.2,0.6,2.1c0,1-0.2,1.7-0.6,2.2
			C4.7,4.1,4.3,4.3,3.6,4.3c-0.4,0-0.7-0.1-0.9-0.2S2.3,3.8,2.2,3.7H2.1L1.8,4.2H0.2v-7.7H2.2z"/>
		<path id="Fill-3" class="st0" d="M5.4-1.4h2.1l1,3.2c0,0.1,0,0.2,0.1,0.3c0,0.1,0,0.2,0,0.3h0c0-0.1,0-0.3,0.1-0.3
			c0-0.1,0-0.2,0.1-0.2l1-3.2h2l-2.2,6C9.3,5,9.1,5.4,8.8,5.7C8.6,6,8.3,6.3,8,6.4C7.6,6.6,7.2,6.7,6.7,6.7c-0.2,0-0.3,0-0.5,0
			c-0.1,0-0.2,0-0.3-0.1V5.1c0.1,0,0.2,0,0.3,0c0.1,0,0.2,0,0.3,0c0.3,0,0.6-0.1,0.7-0.3c0.2-0.2,0.3-0.4,0.4-0.6l0,0L5.4-1.4z"/>
	</g>
	<g id="Group-8" transform="translate(14.318841, 0.000000)">
		<g id="Clip-7">
		</g>
		<defs>
			<filter id="Adobe_OpacityMaskFilter" filterUnits="userSpaceOnUse" x="-2.6" y="-6" width="13.4" height="14.3">
				<feColorMatrix  type="matrix" values="1 0 0 0 0  0 1 0 0 0  0 0 1 0 0  0 0 0 1 0"/>
			</filter>
		</defs>
		<mask maskUnits="userSpaceOnUse" x="-2.6" y="-6" width="13.4" height="14.3" id="mask-2_1_">
			<g class="st1">
				<polygon id="path-1_1_" class="st2" points="0.4,-3 0.4,-1.2 3,-1.2 3,5.3 5.2,5.3 5.2,-1.2 7.7,-1.2 7.7,-3 				"/>
			</g>
		</mask>
		<polygon id="Fill-6" class="st3" points="-2.6,8.3 10.8,8.3 10.8,-6 -2.6,-6 		"/>
	</g>
	<g id="Group-11" transform="translate(20.927536, 2.181818)">
		<g id="Clip-10">
		</g>
		<defs>
			<filter id="Adobe_OpacityMaskFilter_1_" filterUnits="userSpaceOnUse" x="-2.4" y="-5.6" width="10.1" height="11.8">
				<feColorMatrix  type="matrix" values="1 0 0 0 0  0 1 0 0 0  0 0 1 0 0  0 0 0 1 0"/>
			</filter>
		</defs>
		<mask maskUnits="userSpaceOnUse" x="-2.4" y="-5.6" width="10.1" height="11.8" id="mask-4_1_">
			<g class="st4">
				<path id="path-3_1_" class="st2" d="M3.2-2.4C2.9-2.2,2.7-1.9,2.6-1.7l0,0l0-0.8H0.6v5.6h2V0.7c0-0.5,0.1-0.9,0.3-1.1l0,0
					c0.2-0.3,0.5-0.4,0.9-0.4l0,0c0.2,0,0.5,0,0.7,0.1l0,0l0.2-1.9C4.4-2.6,4.2-2.6,4-2.6l0,0c0,0,0,0,0,0l0,0c0,0,0,0,0,0l0,0
					C3.7-2.6,3.4-2.5,3.2-2.4L3.2-2.4z"/>
			</g>
		</mask>
		<polygon id="Fill-9" class="st5" points="-2.4,6.1 7.7,6.1 7.7,-5.6 -2.4,-5.6 		"/>
	</g>
	<g id="Group-14" transform="translate(25.333333, 2.181818)">
		<g id="Clip-13">
		</g>
		<defs>
			<filter id="Adobe_OpacityMaskFilter_2_" filterUnits="userSpaceOnUse" x="-2.5" y="-5.5" width="11.6" height="11.8">
				<feColorMatrix  type="matrix" values="1 0 0 0 0  0 1 0 0 0  0 0 1 0 0  0 0 0 1 0"/>
			</filter>
		</defs>
		<mask maskUnits="userSpaceOnUse" x="-2.5" y="-5.5" width="11.6" height="11.8" id="mask-6_1_">
			<g class="st6">
				<path id="path-5_1_" class="st2" d="M4.1-2.5v3c0,0.3-0.1,0.6-0.2,0.8l0,0C3.8,1.5,3.5,1.6,3.3,1.6l0,0c-0.5,0-0.8-0.3-0.8-1
					l0,0v-3.1h-2v3.4c0,0.8,0.2,1.4,0.5,1.8l0,0c0.3,0.4,0.8,0.6,1.5,0.6l0,0c0.3,0,0.7-0.1,1-0.2l0,0C3.8,2.9,4,2.7,4.2,2.4l0,0
					l0,0.7h1.9v-5.6H4.1z"/>
			</g>
		</mask>
		<polygon id="Fill-12" class="st7" points="-2.5,6.3 9.2,6.3 9.2,-5.5 -2.5,-5.5 		"/>
	</g>
	<g id="Group-17" transform="translate(31.942029, 2.181818)">
		<g id="Clip-16">
		</g>
		<defs>
			<filter id="Adobe_OpacityMaskFilter_3_" filterUnits="userSpaceOnUse" x="-3" y="-5.7" width="10.9" height="12">
				<feColorMatrix  type="matrix" values="1 0 0 0 0  0 1 0 0 0  0 0 1 0 0  0 0 0 1 0"/>
			</filter>
		</defs>
		<mask maskUnits="userSpaceOnUse" x="-3" y="-5.7" width="10.9" height="12" id="mask-8_1_">
			<g class="st8">
				<path id="path-7_1_" class="st2" d="M0.8-2.2C0.4-1.9,0.2-1.4,0.2-0.9l0,0c0,0.5,0.1,0.9,0.4,1.2l0,0C0.9,0.6,1.4,0.9,2.1,1l0,0
					c0.2,0.1,0.5,0.1,0.7,0.2l0,0c0.1,0.1,0.2,0.2,0.2,0.3l0,0c0,0.2-0.2,0.3-0.7,0.3l0,0c-0.3,0-0.7-0.1-1-0.1l0,0
					C0.9,1.6,0.6,1.5,0.3,1.3l0,0L0.1,2.7c0.3,0.2,0.6,0.3,1,0.4l0,0c0.4,0.1,0.9,0.2,1.3,0.2l0,0c0.8,0,1.4-0.2,1.9-0.5l0,0
					c0.4-0.3,0.7-0.8,0.7-1.3l0,0c0-0.5-0.2-0.9-0.5-1.2l0,0C4.1,0,3.6-0.2,3-0.4l0,0c-0.2,0-0.5-0.1-0.7-0.2l0,0
					C2.2-0.7,2.1-0.8,2.1-0.9l0,0c0-0.2,0.2-0.3,0.6-0.3l0,0c0.3,0,0.6,0,0.9,0.1l0,0c0.3,0.1,0.6,0.2,0.9,0.3l0,0l0.2-1.4
					C4.3-2.4,4-2.5,3.7-2.5l0,0C3.3-2.6,3-2.7,2.6-2.7l0,0C1.8-2.7,1.2-2.5,0.8-2.2L0.8-2.2z"/>
			</g>
		</mask>
		<polygon id="Fill-15" class="st9" points="-3,6.3 7.9,6.3 7.9,-5.7 -3,-5.7 		"/>
	</g>
	<g id="Group-20" transform="translate(36.347826, 1.090909)">
		<g id="Clip-19">
		</g>
		<defs>
			<filter id="Adobe_OpacityMaskFilter_4_" filterUnits="userSpaceOnUse" x="-2.5" y="-5.9" width="10.9" height="13.3">
				<feColorMatrix  type="matrix" values="1 0 0 0 0  0 1 0 0 0  0 0 1 0 0  0 0 0 1 0"/>
			</filter>
		</defs>
		<mask maskUnits="userSpaceOnUse" x="-2.5" y="-5.9" width="10.9" height="13.3" id="mask-10_1_">
			<g class="st10">
				<path id="path-9_1_" class="st2" d="M1.5-2.9v1.4h-1v1.6h1v2c0,0.7,0.2,1.3,0.5,1.7l0,0C2.4,4.2,3,4.4,3.7,4.4l0,0
					c0.3,0,0.6,0,0.9-0.1l0,0c0.3,0,0.5-0.1,0.7-0.2l0,0L5.2,2.4C4.9,2.6,4.6,2.7,4.2,2.6l0,0C4,2.6,3.8,2.6,3.7,2.4l0,0
					C3.5,2.3,3.5,2.1,3.5,1.7l0,0V0.2h1.6v-1.6H3.5v-1.4H1.5z"/>
			</g>
		</mask>
		<polygon id="Fill-18" class="st11" points="-2.5,7.4 8.4,7.4 8.4,-5.9 -2.5,-5.9 		"/>
	</g>
	<g id="Group-23" transform="translate(41.855072, 0.000000)">
		<g id="Clip-22">
		</g>
		<defs>
			<filter id="Adobe_OpacityMaskFilter_5_" filterUnits="userSpaceOnUse" x="-2.9" y="-6.2" width="12.4" height="14.7">
				<feColorMatrix  type="matrix" values="1 0 0 0 0  0 1 0 0 0  0 0 1 0 0  0 0 0 1 0"/>
			</filter>
		</defs>
		<mask maskUnits="userSpaceOnUse" x="-2.9" y="-6.2" width="12.4" height="14.7" id="mask-12_1_">
			<g class="st12">
				<path id="path-11_1_" class="st2" d="M3.4-3.2c-1,0-1.7,0.2-2.3,0.7l0,0C0.5-2,0.2-1.4,0.2-0.6l0,0c0,0.7,0.2,1.2,0.6,1.7l0,0
					c0.4,0.4,1,0.8,1.9,1l0,0c0.3,0.1,0.6,0.2,0.9,0.3l0,0c0.2,0.1,0.3,0.2,0.4,0.3l0,0C4.2,2.7,4.2,2.8,4.2,3l0,0
					c0,0.2-0.1,0.5-0.3,0.6l0,0C3.7,3.7,3.3,3.7,2.9,3.7l0,0C2.5,3.7,2,3.7,1.5,3.5l0,0C1.1,3.4,0.7,3.2,0.3,3l0,0L0.1,4.8
					c0.2,0.2,0.5,0.3,0.8,0.4l0,0c0.3,0.1,0.7,0.2,1,0.3l0,0C2.3,5.5,2.7,5.5,3,5.5l0,0c1.1,0,1.9-0.2,2.5-0.7l0,0
					c0.6-0.5,0.9-1.1,0.9-1.9l0,0c0-0.7-0.2-1.2-0.6-1.7l0,0C5.3,0.8,4.6,0.5,3.6,0.2l0,0C3.1,0,2.8-0.1,2.6-0.2l0,0
					C2.5-0.3,2.4-0.5,2.4-0.7l0,0c0-0.5,0.4-0.7,1.1-0.7l0,0c0.4,0,0.8,0.1,1.2,0.2l0,0C5-1.1,5.4-1,5.7-0.8l0,0L6-2.5
					C5.6-2.7,5.2-2.9,4.8-3l0,0C4.4-3.1,3.9-3.2,3.4-3.2L3.4-3.2C3.4-3.2,3.4-3.2,3.4-3.2L3.4-3.2z"/>
			</g>
		</mask>
		<polygon id="Fill-21" class="st13" points="-2.9,8.5 9.4,8.5 9.4,-6.2 -2.9,-6.2 		"/>
	</g>
	<g id="Group-26" transform="translate(47.362319, 1.090909)">
		<g id="Clip-25">
		</g>
		<defs>
			<filter id="Adobe_OpacityMaskFilter_6_" filterUnits="userSpaceOnUse" x="-2.2" y="-5.9" width="10.9" height="13.3">
				<feColorMatrix  type="matrix" values="1 0 0 0 0  0 1 0 0 0  0 0 1 0 0  0 0 0 1 0"/>
			</filter>
		</defs>
		<mask maskUnits="userSpaceOnUse" x="-2.2" y="-5.9" width="10.9" height="13.3" id="mask-14_1_">
			<g class="st14">
				<path id="path-13_1_" class="st2" d="M1.9-2.9v1.4h-1v1.6h1v2c0,0.7,0.2,1.3,0.5,1.7l0,0C2.7,4.2,3.3,4.4,4,4.4l0,0
					c0.3,0,0.6,0,0.9-0.1l0,0c0.3,0,0.5-0.1,0.7-0.2l0,0L5.5,2.4C5.2,2.6,4.9,2.7,4.6,2.6l0,0C4.3,2.6,4.1,2.6,4,2.4l0,0
					C3.9,2.3,3.8,2.1,3.8,1.7l0,0V0.2h1.6v-1.6H3.8v-1.4H1.9z"/>
			</g>
		</mask>
		<polygon id="Fill-24" class="st15" points="-2.2,7.4 8.7,7.4 8.7,-5.9 -2.2,-5.9 		"/>
	</g>
	<g id="Group-29" transform="translate(52.869565, 2.181818)">
		<g id="Clip-28">
		</g>
		<defs>
			<filter id="Adobe_OpacityMaskFilter_7_" filterUnits="userSpaceOnUse" x="-2.7" y="-5.7" width="11.5" height="12">
				<feColorMatrix  type="matrix" values="1 0 0 0 0  0 1 0 0 0  0 0 1 0 0  0 0 0 1 0"/>
			</filter>
		</defs>
		<mask maskUnits="userSpaceOnUse" x="-2.7" y="-5.7" width="11.5" height="12" id="mask-16_1_">
			<g class="st16">
				<path id="path-15_1_" class="st2" d="M1.7-2.5C1.4-2.4,1-2.3,0.7-2.1l0,0l0.1,1.5C1.4-1,2-1.2,2.6-1.1l0,0
					c0.4,0,0.7,0.1,0.9,0.3l0,0c0.2,0.2,0.3,0.4,0.4,0.8l0,0C3.7-0.2,3.5-0.2,3.2-0.3l0,0C3-0.3,2.8-0.3,2.6-0.3l0,0
					C1.9-0.3,1.4-0.2,1,0.2l0,0C0.6,0.5,0.3,1,0.4,1.5l0,0c0,0.5,0.2,1,0.5,1.3l0,0c0.3,0.3,0.8,0.5,1.4,0.5l0,0
					c0.7,0,1.3-0.2,1.7-0.7l0,0l0,0.5h1.8V0c0-0.9-0.2-1.5-0.7-2l0,0C4.5-2.5,3.8-2.7,2.9-2.7l0,0C2.5-2.7,2.1-2.6,1.7-2.5L1.7-2.5z
					 M2.4,1.8C2.2,1.7,2.2,1.6,2.2,1.4l0,0c0-0.2,0.1-0.3,0.2-0.4l0,0C2.6,0.9,2.8,0.8,3,0.8l0,0c0.3,0,0.6,0.1,0.9,0.2l0,0
					c0,0.3-0.1,0.5-0.3,0.8l0,0C3.4,1.9,3.1,2,2.9,2l0,0c0,0,0,0,0,0l0,0C2.7,2,2.5,2,2.4,1.8L2.4,1.8z"/>
			</g>
		</mask>
		<polygon id="Fill-27" class="st17" points="-2.7,6.3 8.8,6.3 8.8,-5.7 -2.7,-5.7 		"/>
	</g>
	<g id="Group-32" transform="translate(58.376812, 2.181818)">
		<g id="Clip-31">
		</g>
		<defs>
			<filter id="Adobe_OpacityMaskFilter_8_" filterUnits="userSpaceOnUse" x="-2.1" y="-5.7" width="15.1" height="11.8">
				<feColorMatrix  type="matrix" values="1 0 0 0 0  0 1 0 0 0  0 0 1 0 0  0 0 0 1 0"/>
			</filter>
		</defs>
		<mask maskUnits="userSpaceOnUse" x="-2.1" y="-5.7" width="15.1" height="11.8" id="mask-18_1_">
			<g class="st18">
				<path id="path-17_1_" class="st2" d="M3.5-2.4C3.2-2.3,3-2.1,2.9-1.8l0,0l0-0.7H0.9v5.6h2v-3c0-0.3,0.1-0.6,0.2-0.8l0,0
					c0.1-0.2,0.4-0.3,0.6-0.3l0,0c0.3,0,0.4,0.1,0.6,0.2l0,0c0.1,0.2,0.2,0.4,0.2,0.8l0,0v3.1h2v-3c0-0.3,0.1-0.6,0.2-0.8l0,0
					C6.7-0.8,7-0.9,7.2-0.9l0,0c0.3,0,0.4,0.1,0.6,0.2l0,0c0.1,0.2,0.2,0.4,0.2,0.8l0,0v3.1h2v-3.4c0-0.8-0.2-1.4-0.5-1.8l0,0
					C9.1-2.5,8.6-2.7,7.9-2.7l0,0c-0.4,0-0.7,0.1-1.1,0.2l0,0C6.5-2.3,6.3-2,6.1-1.7l0,0C6-2,5.7-2.3,5.5-2.4l0,0
					c-0.3-0.2-0.6-0.2-1-0.2l0,0c0,0,0,0,0,0l0,0C4.1-2.7,3.8-2.6,3.5-2.4L3.5-2.4z"/>
			</g>
		</mask>
		<polygon id="Fill-30" class="st19" points="-2.1,6.1 12.9,6.1 12.9,-5.7 -2.1,-5.7 		"/>
	</g>
	<g id="Group-35" transform="translate(68.289855, 2.181818)">
		<g id="Clip-34">
		</g>
		<defs>
			<filter id="Adobe_OpacityMaskFilter_9_" filterUnits="userSpaceOnUse" x="-2.3" y="-5.7" width="12.2" height="14.5">
				<feColorMatrix  type="matrix" values="1 0 0 0 0  0 1 0 0 0  0 0 1 0 0  0 0 0 1 0"/>
			</filter>
		</defs>
		<mask maskUnits="userSpaceOnUse" x="-2.3" y="-5.7" width="12.2" height="14.5" id="mask-20_1_">
			<g class="st20">
				<path id="path-19_1_" class="st2" d="M3.3-2.5C3-2.3,2.8-2.1,2.6-1.9l0,0l0-0.6H0.7v8.3h2V2.6C2.9,2.8,3.1,3,3.4,3.1l0,0
					c0.3,0.1,0.6,0.2,0.9,0.2l0,0c0.5,0,1-0.1,1.4-0.4l0,0C6,2.6,6.3,2.2,6.5,1.8l0,0c0.2-0.5,0.3-1,0.3-1.5l0,0
					c0-0.5-0.1-1.1-0.3-1.6l0,0C6.3-1.7,6-2.1,5.6-2.3l0,0C5.2-2.5,4.8-2.7,4.3-2.7l0,0c0,0,0,0,0,0l0,0c0,0,0,0,0,0l0,0
					C3.9-2.7,3.6-2.6,3.3-2.5L3.3-2.5z M2.9,1.2C2.7,1,2.6,0.6,2.6,0.3l0,0c0-0.3,0.1-0.6,0.3-0.9l0,0c0.2-0.2,0.5-0.4,0.8-0.4l0,0
					c0.3,0,0.6,0.1,0.8,0.4l0,0C4.8-0.3,4.9,0,4.9,0.3l0,0c0,0.3-0.1,0.7-0.3,0.9l0,0C4.4,1.4,4.1,1.6,3.8,1.6l0,0c0,0,0,0,0,0l0,0
					C3.4,1.6,3.1,1.4,2.9,1.2L2.9,1.2z"/>
			</g>
		</mask>
		<polygon id="Fill-33" class="st21" points="-2.3,8.8 9.9,8.8 9.9,-5.7 -2.3,-5.7 		"/>
	</g>
</g>
<g id="Group-38" transform="translate(0.000000, 8.000000)">
	<g id="Clip-37">
	</g>
	<defs>
		<filter id="Adobe_OpacityMaskFilter_10_" filterUnits="userSpaceOnUse" x="-4.7" y="-4.6" width="15" height="20.9">
			<feColorMatrix  type="matrix" values="1 0 0 0 0  0 1 0 0 0  0 0 1 0 0  0 0 0 1 0"/>
		</filter>
	</defs>
	<mask maskUnits="userSpaceOnUse" x="-4.7" y="-4.6" width="15" height="20.9" id="mask-22_1_">
		<g class="st22">
			<path id="path-21_1_" class="st2" d="M3.8,0.7c-2,2.9-3.2,6.2-3.5,9.8l0,0c0,0.4,0.3,0.8,0.7,0.8l0,0H1c0.4,0,0.7-0.3,0.8-0.7
				l0,0c0.3-3.2,1.4-6.3,3.3-9l0,0c0.2-0.4,0.2-0.8-0.2-1.1l0,0C4.8,0.4,4.6,0.4,4.4,0.4l0,0C4.2,0.4,4,0.5,3.8,0.7L3.8,0.7z"/>
		</g>
	</mask>
	<polygon id="Fill-36" class="st23" points="-4.7,16.3 10.2,16.3 10.2,-4.6 -4.7,-4.6 	"/>
</g>
<g id="Group-41" transform="translate(5.000000, 0.000000)">
	<g id="Clip-40">
	</g>
	<defs>
		<filter id="Adobe_OpacityMaskFilter_11_" filterUnits="userSpaceOnUse" x="-4.2" y="-4.8" width="30.7" height="17">
			<feColorMatrix  type="matrix" values="1 0 0 0 0  0 1 0 0 0  0 0 1 0 0  0 0 0 1 0"/>
		</filter>
	</defs>
	<mask maskUnits="userSpaceOnUse" x="-4.2" y="-4.8" width="30.7" height="17" id="mask-24_1_">
		<g class="st24">
			<path id="path-23_1_" class="st2" d="M1,5.9C0.8,6.1,0.7,6.4,0.9,6.7l0,0C1,7,1.3,7.2,1.6,7.2l0,0C1.8,7.2,2,7.1,2.1,7l0,0
				C7,2.3,14,0.6,20.5,2.6l0,0c0.4,0.1,0.8-0.1,1-0.5l0,0c0.1-0.4-0.1-0.8-0.5-1l0,0C19,0.5,17,0.2,15,0.2l0,0
				C9.9,0.2,4.8,2.2,1,5.9L1,5.9z"/>
		</g>
	</mask>
	<polygon id="Fill-39" class="st25" points="-4.2,12.2 26.5,12.2 26.5,-4.8 -4.2,-4.8 	"/>
</g>
<g id="Group-44" transform="translate(0.000000, 22.000000)">
	<g id="Clip-43">
	</g>
	<defs>
		<filter id="Adobe_OpacityMaskFilter_12_" filterUnits="userSpaceOnUse" x="-4.8" y="-5" width="19.7" height="24.7">
			<feColorMatrix  type="matrix" values="1 0 0 0 0  0 1 0 0 0  0 0 1 0 0  0 0 0 1 0"/>
		</filter>
	</defs>
	<mask maskUnits="userSpaceOnUse" x="-4.8" y="-5" width="19.7" height="24.7" id="mask-26_1_">
		<g class="st26">
			<path id="path-25_1_" class="st2" d="M0.5,0.2C0.3,0.4,0.2,0.6,0.2,0.9l0,0c0.2,1.4,0.5,2.8,1,4.1l0,0c1.4,3.9,4,7.3,7.5,9.6l0,0
				c0.1,0.1,0.3,0.1,0.4,0.1l0,0c0.3,0,0.6-0.2,0.7-0.5l0,0c0.1-0.3,0-0.7-0.3-0.9l0,0c-2.1-1.4-3.9-3.3-5.2-5.4l0,0
				C3,5.7,2.1,3.3,1.7,0.7l0,0c0-0.3-0.2-0.5-0.5-0.6l0,0C1.2,0,1.1,0,1,0l0,0C0.8,0,0.6,0.1,0.5,0.2L0.5,0.2z"/>
		</g>
	</mask>
	<polygon id="Fill-42" class="st27" points="-4.8,19.8 14.9,19.8 14.9,-5 -4.8,-5 	"/>
</g>
<g id="Group-47" transform="translate(28.000000, 2.000000)">
	<g id="Clip-46">
	</g>
	<defs>
		<filter id="Adobe_OpacityMaskFilter_13_" filterUnits="userSpaceOnUse" x="-4.3" y="-4.4" width="20.2" height="21.4">
			<feColorMatrix  type="matrix" values="1 0 0 0 0  0 1 0 0 0  0 0 1 0 0  0 0 0 1 0"/>
		</filter>
	</defs>
	<mask maskUnits="userSpaceOnUse" x="-4.3" y="-4.4" width="20.2" height="21.4" id="mask-28_1_">
		<g class="st28">
			<path id="path-27_1_" class="st2" d="M0.8,1C0.5,1.4,0.7,1.9,1.1,2.1l0,0c3.8,2.1,6.7,5.4,8.3,9.5l0,0C9.4,11.8,9.7,12,10,12l0,0
				c0.1,0,0.2,0,0.3,0l0,0c0.4-0.2,0.6-0.6,0.4-1l0,0c-1.7-4.4-4.9-8-9-10.3l0,0C1.7,0.6,1.6,0.6,1.4,0.6l0,0C1.2,0.6,0.9,0.8,0.8,1
				L0.8,1z"/>
		</g>
	</mask>
	<polygon id="Fill-45" class="st29" points="-4.3,17 15.8,17 15.8,-4.4 -4.3,-4.4 	"/>
</g>
<g id="Group-50" transform="translate(32.000000, 16.000000)">
	<g id="Clip-49">
	</g>
	<defs>
		<filter id="Adobe_OpacityMaskFilter_14_" filterUnits="userSpaceOnUse" x="-4.1" y="-4.4" width="17" height="27.5">
			<feColorMatrix  type="matrix" values="1 0 0 0 0  0 1 0 0 0  0 0 1 0 0  0 0 0 1 0"/>
		</filter>
	</defs>
	<mask maskUnits="userSpaceOnUse" x="-4.1" y="-4.4" width="17" height="27.5" id="mask-30_1_">
		<g class="st30">
			<path id="path-29_1_" class="st2" d="M6.9,0.6C6.5,0.7,6.2,1,6.2,1.5l0,0C6.3,2.3,6.4,3.1,6.4,4l0,0c0,4.8-1.9,9.4-5.2,12.8l0,0
				c-0.2,0.2-0.3,0.6-0.2,0.8l0,0c0.1,0.3,0.4,0.5,0.7,0.5l0,0c0.2,0,0.4-0.1,0.6-0.2l0,0C5.9,14.2,7.9,9.2,7.9,4l0,0
				c0-0.9-0.1-1.8-0.2-2.7l0,0C7.7,0.9,7.3,0.6,7,0.6l0,0C6.9,0.6,6.9,0.6,6.9,0.6L6.9,0.6z"/>
		</g>
	</mask>
	<polygon id="Fill-48" class="st31" points="-4.1,23.2 12.9,23.2 12.9,-4.4 -4.1,-4.4 	"/>
</g>
<g id="Group-53" transform="translate(12.000000, 35.000000)">
	<g id="Clip-52">
	</g>
	<defs>
		<filter id="Adobe_OpacityMaskFilter_15_" filterUnits="userSpaceOnUse" x="-4.5" y="-4" width="27.7" height="13.9">
			<feColorMatrix  type="matrix" values="1 0 0 0 0  0 1 0 0 0  0 0 1 0 0  0 0 0 1 0"/>
		</filter>
	</defs>
	<mask maskUnits="userSpaceOnUse" x="-4.5" y="-4" width="27.7" height="13.9" id="mask-32_1_">
		<g class="st32">
			<path id="path-31_1_" class="st2" d="M17.1,1.1c-4.8,2.6-10.5,3-15.5,1.1l0,0C1.3,2.1,1,2.1,0.8,2.3l0,0C0.5,2.4,0.4,2.7,0.5,3
				l0,0c0,0.3,0.2,0.5,0.5,0.6l0,0c2.3,0.9,4.7,1.3,7.2,1.3l0,0c1.7,0,3.4-0.2,5.1-0.7l0,0c1.6-0.4,3.1-1,4.6-1.8l0,0
				c0.2-0.1,0.4-0.4,0.4-0.7l0,0c0-0.3-0.1-0.5-0.4-0.7l0,0C17.7,1,17.6,1,17.4,1l0,0C17.3,1,17.2,1,17.1,1.1L17.1,1.1z"/>
		</g>
	</mask>
	<polygon id="Fill-51" class="st33" points="-4.5,9.9 23.2,9.9 23.2,-4 -4.5,-4 	"/>
</g>
<g id="Group-56" transform="translate(6.000000, 27.000000)">
	<g id="Clip-55">
	</g>
	<defs>
		<filter id="Adobe_OpacityMaskFilter_16_" filterUnits="userSpaceOnUse" x="-4" y="-4.6" width="21.1" height="18.2">
			<feColorMatrix  type="matrix" values="1 0 0 0 0  0 1 0 0 0  0 0 1 0 0  0 0 0 1 0"/>
		</filter>
	</defs>
	<mask maskUnits="userSpaceOnUse" x="-4" y="-4.6" width="21.1" height="18.2" id="mask-34_1_">
		<g class="st34">
			<path id="path-33_1_" class="st2" d="M1.7,0.4c-0.3,0-0.6,0.2-0.7,0.4l0,0C0.9,1.1,1,1.4,1.1,1.6l0,0C2.3,3.4,3.7,4.9,5.4,6l0,0
				c1.7,1.2,3.7,2,5.8,2.5l0,0c0.1,0,0.1,0,0.2,0l0,0h0c0.4,0,0.7-0.3,0.8-0.7l0,0c0-0.4-0.2-0.8-0.6-0.8l0,0
				C9.6,6.6,7.9,5.9,6.3,4.8l0,0c-1.5-1.1-2.9-2.4-3.9-4l0,0C2.3,0.5,2,0.4,1.7,0.4L1.7,0.4C1.8,0.4,1.7,0.4,1.7,0.4L1.7,0.4z"/>
		</g>
	</mask>
	<polygon id="Fill-54" class="st35" points="-4,13.5 17.1,13.5 17.1,-4.6 -4,-4.6 	"/>
</g>
<g id="Group-59" transform="translate(20.000000, 26.000000)">
	<g id="Clip-58">
	</g>
	<defs>
		<filter id="Adobe_OpacityMaskFilter_17_" filterUnits="userSpaceOnUse" x="-4.5" y="-4.9" width="23.7" height="19.7">
			<feColorMatrix  type="matrix" values="1 0 0 0 0  0 1 0 0 0  0 0 1 0 0  0 0 0 1 0"/>
		</filter>
	</defs>
	<mask maskUnits="userSpaceOnUse" x="-4.5" y="-4.9" width="23.7" height="19.7" id="mask-36_1_">
		<g class="st36">
			<path id="path-35_1_" class="st2" d="M12.7,0.5C10.5,4.9,6.1,7.9,1.2,8.2l0,0C0.8,8.3,0.5,8.6,0.5,9l0,0c0,0.4,0.3,0.7,0.8,0.7
				l0,0l0.1,0c5.5-0.4,10.3-3.7,12.8-8.6l0,0c0.2-0.4,0-0.8-0.4-1l0,0c-0.1-0.1-0.2-0.1-0.4-0.1l0,0C13.1,0.1,12.9,0.3,12.7,0.5
				L12.7,0.5z"/>
		</g>
	</mask>
	<polygon id="Fill-57" class="st37" points="-4.5,14.8 19.2,14.8 19.2,-4.9 -4.5,-4.9 	"/>
</g>
<g id="Group-62" transform="translate(32.000000, 12.000000)">
	<g id="Clip-61">
	</g>
	<defs>
		<filter id="Adobe_OpacityMaskFilter_18_" filterUnits="userSpaceOnUse" x="-4.2" y="-4.6" width="13.2" height="21.1">
			<feColorMatrix  type="matrix" values="1 0 0 0 0  0 1 0 0 0  0 0 1 0 0  0 0 0 1 0"/>
		</filter>
	</defs>
	<mask maskUnits="userSpaceOnUse" x="-4.2" y="-4.6" width="13.2" height="21.1" id="mask-38_1_">
		<g class="st38">
			<path id="path-37_1_" class="st2" d="M0.9,0.8c-0.2,0.2-0.2,0.5,0,0.8l0,0c1.4,2.8,1.9,6,1.3,9l0,0c0,0.2,0,0.4,0.1,0.6l0,0
				c0.1,0.2,0.3,0.3,0.5,0.3l0,0c0,0,0.1,0,0.1,0l0,0c0.4,0,0.7-0.3,0.8-0.6l0,0c0.4-2.2,0.3-4.4-0.2-6.6l0,0C3.3,3.1,2.8,2,2.3,0.9
				l0,0C2.2,0.6,1.9,0.5,1.6,0.4l0,0c0,0,0,0-0.1,0l0,0C1.3,0.4,1.1,0.6,0.9,0.8L0.9,0.8z"/>
		</g>
	</mask>
	<polygon id="Fill-60" class="st39" points="-4.2,16.6 9,16.6 9,-4.6 -4.2,-4.6 	"/>
</g>
<g id="Group-65" transform="translate(22.000000, 4.000000)">
	<g id="Clip-64">
	</g>
	<defs>
		<filter id="Adobe_OpacityMaskFilter_19_" filterUnits="userSpaceOnUse" x="-5" y="-4.5" width="19.3" height="15.4">
			<feColorMatrix  type="matrix" values="1 0 0 0 0  0 1 0 0 0  0 0 1 0 0  0 0 0 1 0"/>
		</filter>
	</defs>
	<mask maskUnits="userSpaceOnUse" x="-5" y="-4.5" width="19.3" height="15.4" id="mask-40_1_">
		<g class="st40">
			<path id="path-39_1_" class="st2" d="M0.2,0.8C0,1,0,1.3,0.1,1.6l0,0C0.2,1.8,0.4,2,0.7,2.1l0,0C3.4,2.5,6,3.8,8,5.7l0,0
				c0.1,0.1,0.3,0.2,0.5,0.2l0,0c0.2,0,0.4-0.1,0.6-0.2l0,0c0.3-0.3,0.3-0.8,0-1.1l0,0C6.8,2.5,4,1.1,0.9,0.5l0,0c0,0-0.1,0-0.1,0
				l0,0C0.6,0.5,0.3,0.6,0.2,0.8L0.2,0.8z"/>
		</g>
	</mask>
	<polygon id="Fill-63" class="st41" points="-5,10.9 14.3,10.9 14.3,-4.5 -5,-4.5 	"/>
</g>
<g id="Group-68" transform="translate(12.000000, 4.000000)">
	<g id="Clip-67">
	</g>
	<defs>
		<filter id="Adobe_OpacityMaskFilter_20_" filterUnits="userSpaceOnUse" x="-4.5" y="-4.6" width="17" height="13.1">
			<feColorMatrix  type="matrix" values="1 0 0 0 0  0 1 0 0 0  0 0 1 0 0  0 0 0 1 0"/>
		</filter>
	</defs>
	<mask maskUnits="userSpaceOnUse" x="-4.5" y="-4.6" width="17" height="13.1" id="mask-42_1_">
		<g class="st42">
			<path id="path-41_1_" class="st2" d="M6.7,0.4C6.6,0.4,6.6,0.4,6.7,0.4L6.7,0.4c-2,0.2-4,0.7-5.8,1.7l0,0
				C0.6,2.2,0.4,2.5,0.5,2.9l0,0c0.1,0.3,0.4,0.6,0.7,0.6l0,0c0.1,0,0.2,0,0.4-0.1l0,0C3.2,2.6,5,2.1,6.8,1.9l0,0
				c0.4-0.1,0.7-0.4,0.7-0.8l0,0C7.4,0.7,7.1,0.4,6.7,0.4L6.7,0.4L6.7,0.4L6.7,0.4z"/>
		</g>
	</mask>
	<polygon id="Fill-66" class="st43" points="-4.5,8.5 12.4,8.5 12.4,-4.6 -4.5,-4.6 	"/>
</g>
<g id="Group-71" transform="translate(4.000000, 8.000000)">
	<g id="Clip-70">
	</g>
	<defs>
		<filter id="Adobe_OpacityMaskFilter_21_" filterUnits="userSpaceOnUse" x="-4.7" y="-4" width="15.7" height="26.1">
			<feColorMatrix  type="matrix" values="1 0 0 0 0  0 1 0 0 0  0 0 1 0 0  0 0 0 1 0"/>
		</filter>
	</defs>
	<mask maskUnits="userSpaceOnUse" x="-4.7" y="-4" width="15.7" height="26.1" id="mask-44_1_">
		<g class="st44">
			<path id="path-43_1_" class="st2" d="M4.6,1.2c-3.9,4.1-5.2,9.9-3.7,15.3l0,0c0.1,0.3,0.4,0.6,0.7,0.6l0,0c0.1,0,0.1,0,0.2,0l0,0
				c0.4-0.1,0.6-0.6,0.5-1l0,0C1,11.3,2.2,6,5.7,2.3l0,0C5.9,2.1,6,1.8,5.9,1.5l0,0C5.8,1.3,5.6,1.1,5.3,1l0,0C5.3,1,5.2,1,5.2,1
				l0,0C5,1,4.7,1.1,4.6,1.2L4.6,1.2z"/>
		</g>
	</mask>
	<polygon id="Fill-69" class="st45" points="-4.7,22.1 10.9,22.1 10.9,-4 -4.7,-4 	"/>
</g>
<g id="Group-74" transform="translate(14.000000, 28.000000)">
	<g id="Clip-73">
	</g>
	<defs>
		<filter id="Adobe_OpacityMaskFilter_22_" filterUnits="userSpaceOnUse" x="-4.3" y="-4.3" width="21.6" height="13">
			<feColorMatrix  type="matrix" values="1 0 0 0 0  0 1 0 0 0  0 0 1 0 0  0 0 0 1 0"/>
		</filter>
	</defs>
	<mask maskUnits="userSpaceOnUse" x="-4.3" y="-4.3" width="21.6" height="13" id="mask-46_1_">
		<g class="st46">
			<path id="path-45_1_" class="st2" d="M11.1,0.8C8.3,2.5,4.8,2.6,1.8,1.3l0,0C1.5,1.1,1.2,1.2,1,1.3l0,0C0.8,1.5,0.7,1.8,0.7,2
				l0,0c0,0.3,0.2,0.5,0.4,0.6l0,0c1.5,0.7,3.2,1.1,4.9,1.1l0,0c2.1,0,4.1-0.5,5.8-1.6l0,0c0.3-0.1,0.4-0.4,0.4-0.7l0,0
				c0-0.3-0.1-0.6-0.4-0.7l0,0c-0.1-0.1-0.2-0.1-0.4-0.1l0,0C11.4,0.7,11.3,0.8,11.1,0.8L11.1,0.8z"/>
		</g>
	</mask>
	<polygon id="Fill-72" class="st47" points="-4.3,8.8 17.3,8.8 17.3,-4.3 -4.3,-4.3 	"/>
</g>
<g id="Group-77" transform="translate(28.000000, 17.000000)">
	<g id="Clip-76">
	</g>
	<defs>
		<filter id="Adobe_OpacityMaskFilter_23_" filterUnits="userSpaceOnUse" x="-4.3" y="-4.1" width="13.1" height="18.5">
			<feColorMatrix  type="matrix" values="1 0 0 0 0  0 1 0 0 0  0 0 1 0 0  0 0 0 1 0"/>
		</filter>
	</defs>
	<mask maskUnits="userSpaceOnUse" x="-4.3" y="-4.1" width="13.1" height="18.5" id="mask-48_1_">
		<g class="st48">
			<path id="path-47_1_" class="st2" d="M2.8,1C2.4,1,2.1,1.4,2.1,1.8l0,0c0.1,0.4,0.1,0.8,0.1,1.3l0,0c0,1.8-0.5,3.6-1.4,5.2l0,0
				C0.5,8.6,0.7,9.1,1,9.3l0,0c0.1,0.1,0.3,0.1,0.4,0.1l0,0C1.7,9.4,2,9.3,2.1,9l0,0C3.4,6.8,4,4.2,3.7,1.6l0,0
				C3.6,1.2,3.3,0.9,2.8,1L2.8,1C2.9,0.9,2.8,0.9,2.8,1L2.8,1z"/>
		</g>
	</mask>
	<polygon id="Fill-75" class="st49" points="-4.3,14.4 8.7,14.4 8.7,-4.1 -4.3,-4.1 	"/>
</g>
<g id="Group-80" transform="translate(17.000000, 8.000000)">
	<g id="Clip-79">
	</g>
	<defs>
		<filter id="Adobe_OpacityMaskFilter_24_" filterUnits="userSpaceOnUse" x="-4.1" y="-4.6" width="22.5" height="17.2">
			<feColorMatrix  type="matrix" values="1 0 0 0 0  0 1 0 0 0  0 0 1 0 0  0 0 0 1 0"/>
		</filter>
	</defs>
	<mask maskUnits="userSpaceOnUse" x="-4.1" y="-4.6" width="22.5" height="17.2" id="mask-50_1_">
		<g class="st50">
			<path id="path-49_1_" class="st2" d="M1.6,0.5c-0.4,0-0.7,0.4-0.7,0.8l0,0C0.9,1.7,1.3,2,1.7,2l0,0c0,0,0.1,0,0.1,0l0,0
				C2.2,2,2.6,1.9,3.1,1.9l0,0c3.7,0,7.1,2,8.9,5.2l0,0c0.1,0.2,0.4,0.4,0.7,0.4l0,0c0.1,0,0.3,0,0.4-0.1l0,0
				c0.4-0.2,0.5-0.7,0.3-1.1l0,0c-2.1-3.7-6-6-10.2-6l0,0C2.6,0.4,2.1,0.4,1.6,0.5L1.6,0.5z"/>
		</g>
	</mask>
	<polygon id="Fill-78" class="st51" points="-4.1,12.6 18.4,12.6 18.4,-4.6 -4.1,-4.6 	"/>
</g>
<g id="Group-83" transform="translate(9.000000, 9.000000)">
	<g id="Clip-82">
	</g>
	<defs>
		<filter id="Adobe_OpacityMaskFilter_25_" filterUnits="userSpaceOnUse" x="-4.2" y="-4.2" width="15.5" height="15.5">
			<feColorMatrix  type="matrix" values="1 0 0 0 0  0 1 0 0 0  0 0 1 0 0  0 0 0 1 0"/>
		</filter>
	</defs>
	<mask maskUnits="userSpaceOnUse" x="-4.2" y="-4.2" width="15.5" height="15.5" id="mask-52_1_">
		<g class="st52">
			<path id="path-51_1_" class="st2" d="M5.2,1C3.4,2,2,3.5,0.9,5.2l0,0C0.7,5.6,0.9,6.1,1.2,6.3l0,0c0.1,0.1,0.3,0.1,0.4,0.1l0,0
				c0.3,0,0.5-0.2,0.7-0.4l0,0C3.2,4.5,4.5,3.2,6,2.3l0,0c0.2-0.1,0.4-0.4,0.4-0.7l0,0c0-0.3-0.2-0.5-0.4-0.7l0,0
				C5.9,0.9,5.7,0.8,5.6,0.8l0,0C5.5,0.8,5.3,0.9,5.2,1L5.2,1z"/>
		</g>
	</mask>
	<polygon id="Fill-81" class="st53" points="-4.2,11.4 11.4,11.4 11.4,-4.2 -4.2,-4.2 	"/>
</g>
<g id="Group-86" transform="translate(8.000000, 17.000000)">
	<g id="Clip-85">
	</g>
	<defs>
		<filter id="Adobe_OpacityMaskFilter_26_" filterUnits="userSpaceOnUse" x="-4.6" y="-4.2" width="14.4" height="20.4">
			<feColorMatrix  type="matrix" values="1 0 0 0 0  0 1 0 0 0  0 0 1 0 0  0 0 0 1 0"/>
		</filter>
	</defs>
	<mask maskUnits="userSpaceOnUse" x="-4.6" y="-4.2" width="14.4" height="20.4" id="mask-54_1_">
		<g class="st54">
			<path id="path-53_1_" class="st2" d="M0.5,1.4C0.4,2,0.4,2.5,0.4,3.1l0,0C0.4,6,1.5,8.8,3.5,11l0,0c0.1,0.2,0.4,0.2,0.6,0.2l0,0
				c0.2,0,0.4-0.1,0.5-0.2l0,0c0.2-0.1,0.2-0.3,0.2-0.5l0,0c0-0.2-0.1-0.4-0.2-0.6l0,0C2.9,8.1,1.9,5.6,1.9,3.1l0,0
				c0-0.5,0-1,0.1-1.4l0,0c0-0.4-0.3-0.8-0.7-0.8l0,0c0,0-0.1,0-0.1,0l0,0C0.9,0.8,0.6,1.1,0.5,1.4L0.5,1.4z"/>
		</g>
	</mask>
	<polygon id="Fill-84" class="st55" points="-4.6,16.2 9.8,16.2 9.8,-4.2 -4.6,-4.2 	"/>
</g>
<g id="Group-89" transform="translate(13.000000, 12.000000)">
	<g id="Clip-88">
	</g>
	<defs>
		<filter id="Adobe_OpacityMaskFilter_27_" filterUnits="userSpaceOnUse" x="-4.3" y="-4.5" width="16.3" height="14.4">
			<feColorMatrix  type="matrix" values="1 0 0 0 0  0 1 0 0 0  0 0 1 0 0  0 0 0 1 0"/>
		</filter>
	</defs>
	<mask maskUnits="userSpaceOnUse" x="-4.3" y="-4.5" width="16.3" height="14.4" id="mask-56_1_">
		<g class="st56">
			<path id="path-55_1_" class="st2" d="M6.2,0.5c-0.5,0.1-1,0.2-1.5,0.3l0,0C3.1,1.4,1.8,2.4,0.8,3.7l0,0C0.6,4,0.6,4.4,0.8,4.6
				l0,0C1,4.9,1.4,5,1.7,4.9l0,0C1.9,4.9,2,4.8,2.1,4.6l0,0c0.7-1.1,1.8-1.9,3.1-2.3l0,0c0.4-0.1,0.8-0.2,1.2-0.3l0,0
				C6.8,2,7,1.6,7,1.2l0,0C6.9,0.8,6.6,0.5,6.2,0.5L6.2,0.5C6.2,0.5,6.2,0.5,6.2,0.5L6.2,0.5z"/>
		</g>
	</mask>
	<polygon id="Fill-87" class="st57" points="-4.3,10 12,10 12,-4.5 -4.3,-4.5 	"/>
</g>
<g id="Group-92" transform="translate(23.000000, 13.000000)">
	<g id="Clip-91">
	</g>
	<defs>
		<filter id="Adobe_OpacityMaskFilter_28_" filterUnits="userSpaceOnUse" x="-4.8" y="-4.3" width="14.5" height="16.4">
			<feColorMatrix  type="matrix" values="1 0 0 0 0  0 1 0 0 0  0 0 1 0 0  0 0 0 1 0"/>
		</filter>
	</defs>
	<mask maskUnits="userSpaceOnUse" x="-4.8" y="-4.3" width="14.5" height="16.4" id="mask-58_1_">
		<g class="st58">
			<path id="path-57_1_" class="st2" d="M0.6,0.7C0.3,0.9,0.2,1.1,0.2,1.4l0,0c0,0.3,0.1,0.6,0.4,0.7l0,0c1.4,1,2.3,2.5,2.6,4.2l0,0
				C3.1,6.8,3.5,7.1,3.9,7l0,0C4,7,4,7,4.1,7l0,0c0.3-0.1,0.6-0.5,0.5-0.8l0,0C4.3,4,3.2,2.1,1.4,0.8l0,0C1.3,0.7,1.1,0.7,0.9,0.7
				l0,0C0.8,0.7,0.7,0.7,0.6,0.7L0.6,0.7z"/>
		</g>
	</mask>
	<polygon id="Fill-90" class="st59" points="-4.8,12 9.6,12 9.6,-4.3 -4.8,-4.3 	"/>
</g>
<g id="Group-95" transform="translate(20.000000, 23.000000)">
	<g id="Clip-94">
	</g>
	<defs>
		<filter id="Adobe_OpacityMaskFilter_29_" filterUnits="userSpaceOnUse" x="-4.9" y="-4.8" width="16.3" height="14.4">
			<feColorMatrix  type="matrix" values="1 0 0 0 0  0 1 0 0 0  0 0 1 0 0  0 0 0 1 0"/>
		</filter>
	</defs>
	<mask maskUnits="userSpaceOnUse" x="-4.9" y="-4.8" width="16.3" height="14.4" id="mask-60_1_">
		<g class="st60">
			<path id="path-59_1_" class="st2" d="M5,0.5C4,1.9,2.5,2.9,0.8,3.1l0,0C0.4,3.1,0.1,3.5,0.1,3.9l0,0c0,0.4,0.4,0.7,0.8,0.7l0,0
				c0.5-0.1,1-0.2,1.5-0.3l0,0C4,3.8,5.4,2.8,6.3,1.4l0,0c0.2-0.2,0.2-0.5,0.1-0.8l0,0C6.2,0.4,6,0.2,5.7,0.2l0,0c0,0,0,0-0.1,0l0,0
				C5.4,0.2,5.2,0.3,5,0.5L5,0.5z"/>
		</g>
	</mask>
	<polygon id="Fill-93" class="st61" points="-4.9,9.6 11.4,9.6 11.4,-4.8 -4.9,-4.8 	"/>
</g>
<g id="Group-98" transform="translate(12.000000, 20.000000)">
	<g id="Clip-97">
	</g>
	<defs>
		<filter id="Adobe_OpacityMaskFilter_30_" filterUnits="userSpaceOnUse" x="-4.5" y="-4.9" width="14.4" height="16.3">
			<feColorMatrix  type="matrix" values="1 0 0 0 0  0 1 0 0 0  0 0 1 0 0  0 0 0 1 0"/>
		</filter>
	</defs>
	<mask maskUnits="userSpaceOnUse" x="-4.5" y="-4.9" width="14.4" height="16.3" id="mask-62_1_">
		<g class="st62">
			<path id="path-61_1_" class="st2" d="M1.2,0.1C0.8,0.2,0.5,0.6,0.5,1l0,0c0.1,0.5,0.2,1,0.3,1.5l0,0C1.4,4,2.4,5.4,3.7,6.3l0,0
				c0.2,0.1,0.5,0.2,0.7,0.1l0,0c0.2-0.1,0.3-0.2,0.4-0.3l0,0C4.9,5.9,5,5.7,4.9,5.5l0,0c0-0.2-0.2-0.4-0.3-0.5l0,0
				C3.5,4.3,2.7,3.2,2.3,2l0,0C2.2,1.6,2.1,1.2,2.1,0.8l0,0C2,0.4,1.7,0.1,1.2,0.1L1.2,0.1C1.3,0.1,1.2,0.1,1.2,0.1L1.2,0.1z"/>
		</g>
	</mask>
	<polygon id="Fill-96" class="st63" points="-4.5,11.4 10,11.4 10,-4.9 -4.5,-4.9 	"/>
</g>
<g id="Group-101" transform="translate(17.000000, 17.000000)">
	<g id="Clip-100">
	</g>
	<defs>
		<filter id="Adobe_OpacityMaskFilter_31_" filterUnits="userSpaceOnUse" x="-4.7" y="-4.7" width="15.5" height="15.5">
			<feColorMatrix  type="matrix" values="1 0 0 0 0  0 1 0 0 0  0 0 1 0 0  0 0 0 1 0"/>
		</filter>
	</defs>
	<mask maskUnits="userSpaceOnUse" x="-4.7" y="-4.7" width="15.5" height="15.5" id="mask-64_1_">
		<g class="st64">
			<path id="path-63_1_" class="st2" d="M0.5,2C0.1,3,0.3,4.2,1.1,5l0,0c0.8,0.8,2,1,3,0.6l0,0c1-0.4,1.7-1.4,1.7-2.5l0,0
				c0-1.5-1.2-2.7-2.7-2.7l0,0C2,0.3,1,1,0.5,2L0.5,2z M1.9,3.1c0-0.6,0.5-1.2,1.2-1.2l0,0c0.6,0,1.2,0.5,1.2,1.2l0,0
				c0,0.6-0.5,1.2-1.2,1.2l0,0C2.4,4.2,1.9,3.7,1.9,3.1L1.9,3.1z"/>
		</g>
	</mask>
	<polygon id="Fill-99" class="st65" points="-4.7,10.8 10.8,10.8 10.8,-4.7 -4.7,-4.7 	"/>
</g>
<g>
	<path class="st66" d="M59.8,20.2c-1.4,0-2.6-0.3-3.7-0.9c-1.1-0.6-2-1.4-2.6-2.5c-0.6-1.1-1-2.3-1-3.7c0-1.3,0.3-2.4,0.9-3.5
		s1.5-1.9,2.6-2.6c1.1-0.6,2.4-1,3.8-1c1.4,0,2.6,0.3,3.7,0.9c1.1,0.6,2,1.4,2.6,2.5c0.6,1.1,1,2.3,1,3.7c0,1.3-0.3,2.4-0.9,3.5
		s-1.5,1.9-2.6,2.6C62.5,19.9,61.2,20.2,59.8,20.2z M59.8,17.1c0.7,0,1.3-0.2,1.8-0.5s1-0.8,1.3-1.4c0.3-0.6,0.5-1.3,0.5-2
		c0-0.7-0.1-1.4-0.4-2s-0.7-1.1-1.3-1.4c-0.5-0.3-1.2-0.5-1.9-0.5c-0.7,0-1.3,0.2-1.8,0.5s-1,0.8-1.3,1.4c-0.3,0.6-0.5,1.3-0.5,2
		c0,0.7,0.1,1.4,0.4,2s0.7,1.1,1.3,1.4C58.5,16.9,59.1,17.1,59.8,17.1z"/>
	<path class="st66" d="M68.4,10.8h3.1l0,1.1c0.2-0.4,0.6-0.8,1-1s1-0.4,1.6-0.4c1,0,1.8,0.3,2.4,1c0.5,0.7,0.8,1.6,0.8,2.9V20h-3.2
		v-5c0-1.1-0.4-1.6-1.2-1.6c-0.4,0-0.8,0.2-1,0.5c-0.2,0.3-0.4,0.7-0.4,1.3V20h-3.2V10.8z"/>
	<path class="st66" d="M84.6,20.2c-0.6,0-1.1-0.1-1.5-0.3c-0.5-0.2-0.8-0.6-1.1-1l0,1h-3V5.6h3.2v6c0.3-0.4,0.6-0.6,1.1-0.8
		c0.4-0.2,0.9-0.3,1.4-0.3c0.8,0,1.5,0.2,2.1,0.6c0.6,0.4,1.1,1,1.5,1.7c0.4,0.7,0.5,1.6,0.5,2.5c0,0.9-0.2,1.7-0.5,2.4
		c-0.4,0.7-0.9,1.3-1.5,1.8C86.1,20,85.4,20.2,84.6,20.2z M83.8,17.4c0.5,0,1-0.2,1.3-0.6s0.5-0.9,0.5-1.5c0-0.6-0.2-1.1-0.5-1.5
		c-0.3-0.4-0.8-0.6-1.3-0.6c-0.5,0-1,0.2-1.3,0.6c-0.3,0.4-0.5,0.9-0.5,1.5c0,0.6,0.2,1.1,0.5,1.5C82.8,17.2,83.3,17.4,83.8,17.4z"
		/>
	<path class="st66" d="M94.6,20.2c-0.9,0-1.8-0.2-2.5-0.6s-1.4-1-1.8-1.7c-0.5-0.7-0.7-1.6-0.7-2.5c0-0.9,0.2-1.7,0.6-2.4
		s1-1.3,1.8-1.8c0.8-0.4,1.6-0.7,2.6-0.7c0.9,0,1.8,0.2,2.5,0.6c0.8,0.4,1.4,1,1.8,1.7c0.4,0.7,0.7,1.6,0.7,2.5
		c0,0.9-0.2,1.7-0.6,2.4c-0.4,0.7-1,1.3-1.8,1.8C96.5,20,95.6,20.2,94.6,20.2z M94.6,17.4c0.5,0,1-0.2,1.3-0.6s0.5-0.9,0.5-1.5
		c0-0.6-0.2-1.1-0.5-1.5c-0.3-0.4-0.8-0.6-1.3-0.6c-0.5,0-1,0.2-1.3,0.6c-0.3,0.4-0.5,0.9-0.5,1.5c0,0.6,0.2,1.1,0.5,1.5
		S94.1,17.4,94.6,17.4z"/>
	<path class="st66" d="M103.5,20.2c-0.9,0-1.7-0.3-2.2-0.8c-0.5-0.5-0.8-1.2-0.8-2.1c0-0.9,0.3-1.6,1-2.2c0.7-0.6,1.5-0.8,2.6-0.8
		c0.3,0,0.7,0,1.1,0.1c0.4,0.1,0.7,0.2,1,0.3c0-0.6-0.2-1-0.6-1.3c-0.3-0.3-0.8-0.4-1.5-0.4c-1,0-1.9,0.3-2.8,0.9l-0.2-2.5
		c0.4-0.3,0.9-0.5,1.6-0.6c0.6-0.2,1.3-0.2,1.9-0.2c1.5,0,2.6,0.4,3.4,1.1s1.2,1.8,1.2,3.2V20h-2.9l0-0.9
		C105.6,19.9,104.7,20.2,103.5,20.2z M104.5,18.1c0.4,0,0.8-0.1,1.1-0.5s0.5-0.7,0.5-1.2c-0.4-0.2-0.9-0.3-1.4-0.3
		c-0.4,0-0.7,0.1-1,0.3c-0.2,0.2-0.4,0.4-0.4,0.7s0.1,0.5,0.3,0.7S104.2,18.1,104.5,18.1z"/>
	<path class="st66" d="M110.6,10.8h3.1l0,1.4c0.2-0.5,0.5-0.9,0.9-1.1c0.4-0.3,0.8-0.4,1.4-0.4c0.4,0,0.7,0.1,1,0.2l-0.2,3
		c-0.4-0.2-0.8-0.2-1.2-0.2c-0.6,0-1.1,0.2-1.4,0.6c-0.3,0.4-0.5,1-0.5,1.8V20h-3.2V10.8z"/>
	<path class="st66" d="M121.4,20.2c-0.8,0-1.5-0.2-2.1-0.6s-1.1-1-1.5-1.7c-0.4-0.7-0.5-1.6-0.5-2.5c0-0.9,0.2-1.7,0.5-2.5
		c0.4-0.7,0.9-1.3,1.5-1.8s1.4-0.7,2.2-0.7c0.5,0,1,0.1,1.4,0.3c0.4,0.2,0.8,0.5,1.1,0.8v-6h3.2V20h-3l0-1c-0.3,0.4-0.6,0.8-1.1,1
		S122,20.2,121.4,20.2z M122.3,17.4c0.5,0,1-0.2,1.3-0.6s0.5-0.9,0.5-1.5c0-0.6-0.2-1.1-0.5-1.5c-0.3-0.4-0.8-0.6-1.3-0.6
		c-0.5,0-1,0.2-1.3,0.6c-0.3,0.4-0.5,0.9-0.5,1.5c0,0.6,0.2,1.1,0.5,1.5S121.7,17.4,122.3,17.4z"/>
	<path class="st66" d="M130.4,9.4c-0.5,0-0.9-0.2-1.3-0.5c-0.3-0.3-0.5-0.7-0.5-1.2s0.2-0.9,0.5-1.2s0.8-0.5,1.3-0.5
		s0.9,0.2,1.3,0.5c0.3,0.3,0.5,0.7,0.5,1.2s-0.2,0.9-0.5,1.2C131.3,9.2,130.9,9.4,130.4,9.4z M128.8,10.8h3.2V20h-3.2V10.8z"/>
	<path class="st66" d="M133.6,10.8h3.1l0,1.1c0.2-0.4,0.6-0.8,1-1s1-0.4,1.6-0.4c1,0,1.8,0.3,2.4,1c0.5,0.7,0.8,1.6,0.8,2.9V20h-3.2
		v-5c0-1.1-0.4-1.6-1.2-1.6c-0.4,0-0.8,0.2-1,0.5c-0.2,0.3-0.4,0.7-0.4,1.3V20h-3.2V10.8z"/>
	<path class="st66" d="M148,24.4c-1.5,0-2.6-0.2-3.4-0.7c-0.8-0.4-1.2-1.1-1.2-1.9c0-0.5,0.1-1,0.4-1.3c0.3-0.4,0.7-0.7,1.2-0.8
		c-0.4-0.2-0.6-0.4-0.8-0.6c-0.2-0.3-0.3-0.6-0.3-0.9c0-0.8,0.5-1.4,1.4-1.9c-0.9-0.6-1.4-1.4-1.4-2.5c0-0.6,0.2-1.2,0.5-1.7
		s0.8-0.9,1.5-1.1c0.6-0.3,1.4-0.4,2.2-0.4c0.8,0,1.5,0.1,2.2,0.4l3.3-0.2v2.1l-1.4-0.1c0.2,0.4,0.4,0.9,0.4,1.3
		c0,0.6-0.2,1.1-0.5,1.5c-0.3,0.5-0.8,0.8-1.4,1.1c-0.6,0.3-1.4,0.4-2.2,0.4c-0.5,0-0.9,0-1.2-0.1c-0.3,0.2-0.5,0.4-0.5,0.6
		c0,0.2,0.1,0.3,0.3,0.3c0.2,0.1,0.5,0.1,0.9,0.1h0.8c3,0,4.4,1,4.4,3.1c0,1.1-0.4,1.9-1.3,2.5C150.9,24.2,149.6,24.4,148,24.4z
		 M148.3,22.1c0.6,0,1.1-0.1,1.5-0.2c0.3-0.1,0.5-0.4,0.5-0.6c0-0.3-0.1-0.5-0.4-0.6c-0.3-0.1-0.7-0.2-1.4-0.2h-0.4
		c-1.2,0-1.8,0.3-1.8,0.8C146.3,21.8,147,22.1,148.3,22.1z M148.2,14.9c0.4,0,0.7-0.1,0.9-0.3c0.2-0.2,0.3-0.5,0.3-0.8
		c0-0.3-0.1-0.6-0.3-0.8c-0.2-0.2-0.5-0.3-0.9-0.3c-0.4,0-0.7,0.1-0.9,0.3c-0.2,0.2-0.3,0.5-0.3,0.8c0,0.3,0.1,0.6,0.3,0.8
		C147.5,14.8,147.8,14.9,148.2,14.9z"/>
</g>
</svg>
