<svg xmlns="http://www.w3.org/2000/svg" width="70.51" height="60.89" viewBox="0 0 70.51 60.89"><defs><style>.cls-1{fill:#18264f;}.cls-2{fill:#27a569;}.cls-3{fill:none;}</style></defs><g id="Layer_2" data-name="Layer 2"><g id="Layer_1-2" data-name="Layer 1"><path class="cls-1" d="M35,23a6.42,6.42,0,0,0-2.53,12.31,6.26,6.26,0,0,0,2.53.52,6.41,6.41,0,0,0,2.58-.54h0A6.42,6.42,0,0,0,35,23Zm0,10.86a4.44,4.44,0,1,1,4.43-4.44A4.46,4.46,0,0,1,35,33.88Z"/><path class="cls-2" d="M39.42,29.44A4.44,4.44,0,1,1,35,25,4.44,4.44,0,0,1,39.42,29.44Z"/><path class="cls-1" d="M45.86,48.1V42.74c0-5.62-4.22-7.1-8.28-7.43h0c-.82-.07-1.64-.1-2.41-.1s-1.79,0-2.7.12A11.09,11.09,0,0,0,27,37.12a6.52,6.52,0,0,0-2.52,5.62V48.1L24.27,48v2.49l.16.12v2.77a5.25,5.25,0,0,0,4.26,5.14v2.41H41.62V58.48a5.23,5.23,0,0,0,4.24-5.14V50.57L46,50.5V48Zm-2,5.24a3.27,3.27,0,0,1-2.3,3.1v-14h-2v15.8h0v.67h-9V56.6h0V42.45h-2v14a3.27,3.27,0,0,1-2.25-3.09V42.74c0-3.94,2.54-5.56,8.75-5.56s8.74,1.62,8.74,5.56Z"/><path class="cls-2" d="M43.9,42.74v10.6a3.27,3.27,0,0,1-2.3,3.1v-14h-2v15.8h0v.67h-9V56.6h0V42.45h-2v14a3.27,3.27,0,0,1-2.25-3.09V42.74c0-3.94,2.54-5.56,8.75-5.56S43.9,38.8,43.9,42.74Z"/><path class="cls-3" d="M51.93,35.67A16.79,16.79,0,0,1,46,48a.6.6,0,0,0-.08.08V42.74c0-5.61-4.23-7.1-8.3-7.43a6.42,6.42,0,1,0-5.12,0c-4,.39-8,1.93-8,7.41V48.1L24.27,48A16.79,16.79,0,1,1,51.93,35.67Z"/><path class="cls-1" d="M70.51,35.35,63.4,41.7l-1.32-1.48,4.47-4H53.87A18.7,18.7,0,0,1,49,47.77l9,9-.34-6,2-.12.55,9.52-9.64-.4.08-2,5.88.24-8.94-8.94A18.77,18.77,0,0,1,46,50.51V48A16.77,16.77,0,1,0,24.27,48v2.49a17.85,17.85,0,0,1-1.57-1.24l-8.88,8.87,6-.34.11,2-9.5.54.39-9.64,2,.08-.24,5.89,8.76-8.75a18.6,18.6,0,0,1-4.86-11.59H4l4.47,4L7.12,41.7,0,35.35l7.11-6.53,1.33,1.45-4.33,4H16.42a18.53,18.53,0,0,1,4.75-11.58l-8.64-8.64.24,5.9-2,.08-.39-9.65,9.5.55-.11,2-6-.34,8.74,8.73a18.48,18.48,0,0,1,11.71-4.85V4.11l-4,4.33L28.82,7.1,35.36,0,41.7,7.11,40.23,8.43,36.24,4v12.5a18.66,18.66,0,0,1,11.54,4.88l8.79-8.81-5.88.24-.08-2,9.64-.39-.55,9.51-2-.11.34-6-8.91,8.92a18.68,18.68,0,0,1,4.71,11.53H66.41l-4.34-4,1.34-1.45Z"/></g></g></svg>