<svg xmlns="http://www.w3.org/2000/svg" xmlns:xlink="http://www.w3.org/1999/xlink" width="642.54" height="381.98" viewBox="0 0 642.54 381.98"><defs><style>.cls-1{opacity:0.3;fill:url(#linear-gradient);}.cls-2{fill:url(#linear-gradient-2);}.cls-3{fill:url(#linear-gradient-3);}.cls-4{fill:url(#linear-gradient-4);}.cls-5{fill:url(#linear-gradient-5);}.cls-6{fill:url(#linear-gradient-6);}.cls-7{fill:url(#Áåçûìÿííûé_ãðàäèåíò_2);}.cls-8{fill:url(#Áåçûìÿííûé_ãðàäèåíò_2-2);}.cls-9{fill:url(#Áåçûìÿííûé_ãðàäèåíò_2-3);}.cls-10{fill:url(#linear-gradient-7);}.cls-11{fill:url(#linear-gradient-8);}.cls-12{fill:url(#linear-gradient-9);}.cls-13{fill:url(#linear-gradient-10);}.cls-14{fill:url(#linear-gradient-11);}.cls-15{fill:url(#Áåçûìÿííûé_ãðàäèåíò_2-4);}.cls-16{fill:#27a569;}.cls-17{fill:url(#linear-gradient-12);}.cls-18{fill:url(#linear-gradient-13);}.cls-19{fill:url(#linear-gradient-14);}.cls-20{fill:url(#linear-gradient-15);}.cls-21{fill:url(#linear-gradient-16);}.cls-22{fill:url(#linear-gradient-17);}.cls-23{fill:url(#linear-gradient-18);}.cls-24{fill:url(#Áåçûìÿííûé_ãðàäèåíò_2-5);}.cls-25{fill:url(#Áåçûìÿííûé_ãðàäèåíò_2-6);}.cls-26{fill:url(#linear-gradient-19);}.cls-27{fill:url(#linear-gradient-20);}.cls-28{fill:url(#linear-gradient-21);}.cls-29{fill:url(#linear-gradient-22);}.cls-30{fill:url(#linear-gradient-23);}.cls-31{fill:url(#linear-gradient-24);}.cls-32{fill:url(#linear-gradient-25);}.cls-33{fill:url(#linear-gradient-26);}.cls-34{fill:url(#linear-gradient-27);}.cls-35{fill:url(#linear-gradient-28);}.cls-36{fill:url(#linear-gradient-29);}.cls-37{fill:url(#linear-gradient-30);}.cls-38{fill:url(#linear-gradient-31);}.cls-39{fill:#fec12f;}.cls-40{fill:#0e75bc;}.cls-41{fill:#ffe597;}.cls-42{fill:#34688f;}</style><linearGradient id="linear-gradient" x1="106.56" y1="-51.08" x2="514.87" y2="357.24" gradientTransform="matrix(0.99, 0.05, -0.09, 0.85, 37.45, 45.3)" gradientUnits="userSpaceOnUse"><stop offset="0" stop-color="#21abde" stop-opacity="0.05"/><stop offset="0.1" stop-color="#21abde" stop-opacity="0.08"/><stop offset="0.25" stop-color="#21abde" stop-opacity="0.18"/><stop offset="0.43" stop-color="#21abde" stop-opacity="0.33"/><stop offset="0.64" stop-color="#21abde" stop-opacity="0.55"/><stop offset="0.86" stop-color="#21abde" stop-opacity="0.82"/><stop offset="1" stop-color="#21abde"/></linearGradient><linearGradient id="linear-gradient-2" x1="493.1" y1="291.59" x2="529.15" y2="291.59" gradientUnits="userSpaceOnUse"><stop offset="0" stop-color="#024292"/><stop offset="0" stop-color="#172752"/><stop offset="1" stop-color="#18264f"/></linearGradient><linearGradient id="linear-gradient-3" x1="325.73" y1="370.3" x2="502.41" y2="370.3" gradientUnits="userSpaceOnUse"><stop offset="0" stop-color="#283b90"/><stop offset="1" stop-color="#18264f"/></linearGradient><linearGradient id="linear-gradient-4" x1="415.09" y1="245.39" x2="504.02" y2="245.39" xlink:href="#linear-gradient-3"/><linearGradient id="linear-gradient-5" x1="495.03" y1="245.4" x2="511.73" y2="245.4" xlink:href="#linear-gradient-3"/><linearGradient id="linear-gradient-6" x1="484.49" y1="245.39" x2="509.01" y2="245.39" xlink:href="#linear-gradient-3"/><linearGradient id="Áåçûìÿííûé_ãðàäèåíò_2" x1="229.65" y1="218.63" x2="302.17" y2="218.63" gradientUnits="userSpaceOnUse"><stop offset="0" stop-color="#f9b19d"/><stop offset="1" stop-color="#f4815f"/></linearGradient><linearGradient id="Áåçûìÿííûé_ãðàäèåíò_2-2" x1="203.85" y1="227.4" x2="261.2" y2="227.4" xlink:href="#Áåçûìÿííûé_ãðàäèåíò_2"/><linearGradient id="Áåçûìÿííûé_ãðàäèåíò_2-3" x1="207.78" y1="224.01" x2="229.26" y2="224.01" xlink:href="#Áåçûìÿííûé_ãðàäèåíò_2"/><linearGradient id="linear-gradient-7" x1="357.04" y1="228.28" x2="359.11" y2="228.28" gradientUnits="userSpaceOnUse"><stop offset="0" stop-color="#a6dcc0"/><stop offset="1" stop-color="#23a568"/></linearGradient><linearGradient id="linear-gradient-8" x1="295.84" y1="169.69" x2="381.34" y2="169.69" xlink:href="#linear-gradient-7"/><linearGradient id="linear-gradient-9" x1="353.19" y1="233.65" x2="357.04" y2="233.65" xlink:href="#linear-gradient-7"/><linearGradient id="linear-gradient-10" x1="387.47" y1="74.14" x2="465.25" y2="74.14" gradientUnits="userSpaceOnUse"><stop offset="0" stop-color="#024292"/><stop offset="1" stop-color="#18264f"/></linearGradient><linearGradient id="linear-gradient-11" x1="346.39" y1="42.22" x2="414.48" y2="42.22" xlink:href="#linear-gradient-10"/><linearGradient id="Áåçûìÿííûé_ãðàäèåíò_2-4" x1="349.74" y1="78.16" x2="414.3" y2="78.16" xlink:href="#Áåçûìÿííûé_ãðàäèåíò_2"/><linearGradient id="linear-gradient-12" x1="352.96" y1="198.25" x2="382.39" y2="198.25" xlink:href="#linear-gradient-7"/><linearGradient id="linear-gradient-13" x1="373.52" y1="94.4" x2="385.51" y2="94.4" xlink:href="#linear-gradient-7"/><linearGradient id="linear-gradient-14" x1="398.52" y1="125.53" x2="479.76" y2="125.53" xlink:href="#linear-gradient-10"/><linearGradient id="linear-gradient-15" x1="348.53" y1="253.45" x2="348.53" y2="373.69" gradientUnits="userSpaceOnUse"><stop offset="0" stop-color="#21abde"/><stop offset="0.44" stop-color="#20a9dd"/><stop offset="0.65" stop-color="#1ea2d8"/><stop offset="0.8" stop-color="#1995d0"/><stop offset="0.93" stop-color="#1383c5"/><stop offset="1" stop-color="#0e75bc"/></linearGradient><linearGradient id="linear-gradient-16" x1="341.95" y1="380.7" x2="341.95" y2="309.31" xlink:href="#linear-gradient-15"/><linearGradient id="linear-gradient-17" x1="392.34" y1="187.93" x2="476.6" y2="187.93" xlink:href="#linear-gradient-7"/><linearGradient id="linear-gradient-18" x1="392.65" y1="91.52" x2="414.63" y2="91.52" xlink:href="#linear-gradient-7"/><linearGradient id="Áåçûìÿííûé_ãðàäèåíò_2-5" x1="252.51" y1="227.53" x2="422.33" y2="227.53" xlink:href="#Áåçûìÿííûé_ãðàäèåíò_2"/><linearGradient id="Áåçûìÿííûé_ãðàäèåíò_2-6" x1="258.21" y1="222.9" x2="285.21" y2="222.9" xlink:href="#Áåçûìÿííûé_ãðàäèåíò_2"/><linearGradient id="linear-gradient-19" x1="365.32" y1="176.63" x2="446.88" y2="176.63" xlink:href="#linear-gradient-7"/><linearGradient id="linear-gradient-20" x1="136.66" y1="240.85" x2="327.92" y2="240.85" gradientUnits="userSpaceOnUse"><stop offset="0" stop-color="#78cbeb"/><stop offset="1" stop-color="#78cbeb"/></linearGradient><linearGradient id="linear-gradient-21" x1="281.76" y1="240.94" x2="326.11" y2="240.94" gradientUnits="userSpaceOnUse"><stop offset="0" stop-color="#78cbeb"/><stop offset="1" stop-color="#c1e7f6"/></linearGradient><linearGradient id="linear-gradient-22" x1="160.44" y1="238.38" x2="255.97" y2="238.38" xlink:href="#linear-gradient-21"/><linearGradient id="linear-gradient-23" x1="154.14" y1="114.52" x2="238.17" y2="260.06" gradientUnits="userSpaceOnUse"><stop offset="0" stop-color="#edf8fc"/><stop offset="1" stop-color="#a6ddf2"/></linearGradient><linearGradient id="linear-gradient-24" x1="191.33" y1="177.89" x2="201.03" y2="194.69" xlink:href="#linear-gradient-23"/><linearGradient id="linear-gradient-25" x1="0" y1="267.31" x2="1.55" y2="267.31" xlink:href="#linear-gradient-23"/><linearGradient id="linear-gradient-26" x1="363.78" y1="318.97" x2="405.13" y2="318.97" xlink:href="#linear-gradient-23"/><linearGradient id="linear-gradient-27" x1="376.04" y1="310.6" x2="403.24" y2="310.6" xlink:href="#linear-gradient-23"/><linearGradient id="linear-gradient-28" x1="528.39" y1="301.35" x2="564.89" y2="301.35" xlink:href="#linear-gradient-23"/><linearGradient id="linear-gradient-29" x1="530.29" y1="297.43" x2="564.93" y2="297.43" xlink:href="#linear-gradient-23"/><linearGradient id="linear-gradient-30" x1="57.62" y1="255.04" x2="584.16" y2="255.04" xlink:href="#linear-gradient-23"/><linearGradient id="linear-gradient-31" x1="57.62" y1="255.04" x2="359.15" y2="255.04" xlink:href="#linear-gradient-23"/></defs><g id="Layer_2" data-name="Layer 2"><g id="Layer_1-2" data-name="Layer 1"><path class="cls-1" d="M638.29,246.44c16.86-61.48-17.84-130.22-79.76-158C529.43,75.4,496.44,71,464.07,66.78L236.77,37.1c-26.7-3.49-53.65-7-80.7-5.27s-54.6,9.08-75.56,25S46.84,96,40.36,119.79C23.32,182.4,48.11,250,96,296.22s116.44,72.57,186.62,81.33c61.3,7.65,131.87,6,192.29-9.67,43.53-11.26,90.66-26.73,122.89-56.84C617.13,293,631.65,270.68,638.29,246.44Z"/><path class="cls-2" d="M529.15,351.13q-4.81,1.85-9.68,3.52c0-.61-.06-1.25-.1-1.89-.74-11.16-5.25-22.74-10.47-36.15-2.27-5.82-4.66-12-6.91-18.62a2.22,2.22,0,0,0-.1-.31c-.16-.46-.3-.92-.46-1.38l0,0c-.94-2.83-1.81-5.76-2.67-8.75a.07.07,0,0,1,0-.06,152.44,152.44,0,0,1-4.68-23.3,131.78,131.78,0,0,1-.92-18.27,135.66,135.66,0,0,1,1.53-17.38l1.12.18,2.45.38,4.9.76h0l1.3.19a121.78,121.78,0,0,0-.48,34.14,148.34,148.34,0,0,0,6.26,27.17s0,.06,0,.08c2.43,7.57,5.22,14.73,7.89,21.6C523.27,326.24,528.14,338.77,529.15,351.13Z"/><path class="cls-3" d="M502.41,360.22c-9.21,2.81-18.4,5.34-27.47,7.67-27.26,7.05-56.58,11.26-86.21,13.05q-12.47.78-25,1c-12.74.22-25.43,0-37.95-.62-.06-2.25-.1-4.36-.1-5,0-9.75,6.3-17.64,14-17.64H496.55A11.8,11.8,0,0,1,502.41,360.22Z"/><path class="cls-4" d="M503.28,297.6c-3.87.29-28.44.72-32.67.77-26.89.33-50.07-4.72-51.35-11.34a229.58,229.58,0,0,1-.7-83.3c1.15-6.62,24.67-11.67,52.13-11.33,4.32,0,29.39.48,33.33.77A225.29,225.29,0,0,0,503.28,297.6Z"/><path class="cls-5" d="M507,193.17c3,0,5.11,1.47,4.69,3.19a225.05,225.05,0,0,0-.84,98.07c.38,1.73-1.7,3.16-4.65,3.19h0c-2.95,0-5.67-1.34-6.05-3.07a225.52,225.52,0,0,1,.65-98.31c.41-1.73,3.18-3.11,6.2-3.07Z"/><path class="cls-6" d="M508.18,297.55a64.52,64.52,0,0,1-7.05.47c-5.86.07-11.9-5.1-13.06-11.61a225.79,225.79,0,0,1,.37-82c1.22-6.51,7.41-11.67,13.38-11.6a69.83,69.83,0,0,1,7.19.47A225.18,225.18,0,0,0,508.18,297.55Z"/><path class="cls-7" d="M302.17,225.81c-17.67-.68-37.72-3-52.25-5-12-1.64-20.27-3-20.27-3l20.43-1.94,47.13-4.44Z"/><path class="cls-8" d="M255.79,220.27c-15.79.5-22.33,8.63-28.51,11.28A110.42,110.42,0,0,0,215,238.09c3.3-6.87,8.4-7.23,10.89-9.49s1.85-1.15-3.78-1.4c-3.21-.13-8.65,5.68-12.61,8.94-3.42,2.8-5.61,3.09-5.61,3.09a70.26,70.26,0,0,1,9-10.58c6.12-5.73,13.75-10.61,15.57-11.4,3.33-1.42,13.89-2.13,21.44-1.37C258.38,216.75,267.16,219.91,255.79,220.27Z"/><path class="cls-9" d="M229.26,217.53s-12,3.46-14.06,5.12c-1.45,1.16-7.42,7.84-7.42,7.84s4.5-.87,7-3.4S229.26,217.53,229.26,217.53Z"/><path class="cls-10" d="M359.11,224.93a16.13,16.13,0,0,1-2.07,6.7C357.74,229.6,358.43,227.34,359.11,224.93Z"/><path class="cls-11" d="M379.66,123c-1.4,13.57,0,19.41-8.51,52.36-4.38,16.94-8.15,36-12,49.58-.68,2.41-1.37,4.67-2.07,6.7a11.54,11.54,0,0,1-3.85,4c-2.89,1.86-6.67,2.58-11,2.38-17.22-.82-36.75-2.63-36.75-2.63l-3.31-9.57-5-14.35-1.37-4L330,205.18a56.48,56.48,0,0,1,6.92.74l26.31-92.79s3.92-13.83,11.28-11.52C385.16,105,380.36,116.32,379.66,123Z"/><path class="cls-12" d="M357,231.63c-.08.26-.18.52-.26.76-.94,2.63-2.13,3.46-3.59,3.24A11.54,11.54,0,0,0,357,231.63Z"/><path class="cls-13" d="M388.38,82.65C393,103.19,413.72,116,434.7,111.33S469,86.18,464.34,65.63,439,32.26,418,37,383.78,62.12,388.38,82.65Z"/><path class="cls-14" d="M352.54,61.56a29.27,29.27,0,0,0,35,22.16l4.11-15.17a29.27,29.27,0,0,0,22.16-35l-2.4-10.71a29.28,29.28,0,0,0-35-22.17l-7.15,1.6a29.28,29.28,0,0,0-22.16,35Z"/><path class="cls-15" d="M354.55,17A56.12,56.12,0,0,0,357,24.89C364,42.59,378.3,54,390.87,53a89.1,89.1,0,0,0,9,21.21C403.76,81,414,86.69,414,86.69c4.94,12.35-44.49,53.69-46.6,52.61-4.49-2.29,3.56-32,11.64-41.19,3.79-4.31,7.65-9.39,7.74-12.3.28-10.19-3-12.36-7.86-17a24,24,0,0,0-18.47-4.16,3.32,3.32,0,0,1-2.64-.51,20.8,20.8,0,0,1-2.24-5.78l-5.27-23.55A20.64,20.64,0,0,1,354.55,17Z"/><path class="cls-16" d="M405.79,279.7s-12.66,11.47-16.22,12.49c-4.76,1.36-18.11-4.41-18.11-4.41s3.69-59.45,2.31-83-6.9-30.38-6.27-37.65c1-11.64-8.42-17.57-5.63-26.45s9.8-40.74,10.28-36.31c4.11,37.68,18.56,8.62,21.45,4.07C395.18,105.93,405.79,279.7,405.79,279.7Z"/><path class="cls-17" d="M379.34,94.25s-16.75,12.29-16.53,18-8.65,22.44-5.05,47.65c4.11,28.78,5.64,48.1,4.8,66.46s-9.31,34.28-9.6,56.87c-.23,17.71,3.83,19.29,3.83,19.29a14.68,14.68,0,0,0,14.38-3.16c6.57-6.05,5.4-66.65,4.41-81.9s-5.75-51.18-6.86-61.67c-1.37-13,.7-25.73,1.37-29.46,2.33-12.9,5.1-20.81,7-25.56.33-.81,4.69-4.3,5-4.94C383.27,93,380.71,92.71,379.34,94.25Z"/><path class="cls-18" d="M383.8,88.09s3.48-.72.51,3.25a8.29,8.29,0,0,0-1.71,4.11s-1.51-1.58-3.77.69c-2.06,2-5.31,4.62-5.31,4.62s2.1-5.92,2.57-6.34C377.79,92.89,383.8,88.09,383.8,88.09Z"/><path class="cls-19" d="M399.47,134.42c4.81,21.45,26.47,34.86,48.37,30s35.78-26.28,31-47.73-26.47-34.86-48.37-30S394.67,113,399.47,134.42Z"/><path class="cls-20" d="M456.61,358.62a21.32,21.32,0,0,1-8.19,4.92c-9.91,3-24.86,1.78-41.7-1.81-4.24-.9-8.59-1.93-13-3.11-.66-.18-1.32-.34-2-.54,0,0,0,0,0,0-.68-.18-1.34-.36-2-.56-7.49-2-15.14-4.42-22.7-6.93a824.43,824.43,0,0,1-77.8-31.09l-14.13,24.37-17.28,29.82q-17.19-3.19-34-7.87c9.53-28.28,22.5-66.05,29.3-82.91,8.13-20.15,20.88-16.2,20.88-16.2l79.06,13,18.7,3.07,2.21.36,1.08.18,4,.65,18.2,3,.81.14,1.22.2.92-2.75,1.93-5.82,3-9.09,1.83-5.48.76-2.27,7.83-3.39,11.66-5.06L466,264.17l1,.28s2.77,12.76,4.72,28.84c.2,1.66.4,3.35.58,5.06.22,2.22.44,4.49.62,6.76C474.72,327,467.47,348.7,456.61,358.62Z"/><path class="cls-21" d="M410.31,362.89l-19-1.38-1-.06-24.19-1.75-15-1.08L314.49,356l1.37,24.71c-11.3-.73-22.4-1.79-33.22-3.15-1.19-.14-2.37-.3-3.57-.47l-4-33.21-1.48-12.27s5.64-25.77,23.94-21.89c12.83,2.73,38.5,20.25,70,35.78,7,3.46,14.31,6.81,21.85,9.88.85.36,1.69.7,2.55,1h0c1.91.76,3.84,1.51,5.78,2.21,2.93,1.1,5.9,2.13,8.88,3.09a.09.09,0,0,0,.1,0C407.92,362.15,409.12,362.53,410.31,362.89Z"/><path class="cls-22" d="M398.21,291s-2.31-60.15-4.07-88.69-1.37-83.59-1.75-90.45,1.5-16.53,1.5-16.53,8.67-14.79,18.33-13.5c8.5,1.13,21.6,13,29.82,18.44,8,5.36,7.14,105.94,7.54,111,1.45,18.27,12.33,36.31,20.55,53.87,5.26,11.25,6.47,29,6.47,29S427.81,284.78,398.21,291Z"/><polygon class="cls-23" points="409.2 77.12 402.32 83.9 392.65 94.28 397.55 105.93 414.63 81.98 409.2 77.12"/><path class="cls-24" d="M422.33,234.3s-1.06,7.35-40.44,3c-23.2-2.55-52.45-8.89-72.58-13.67-14.07.62-21.51,6.77-28.12,8.55a136,136,0,0,0-15.37,5.4c4.72-7,10.82-6.66,14-8.79s2.33-1-4.32-2c-3.77-.58-10.92,5-16,7.95-4.4,2.59-7,2.61-7,2.61a78,78,0,0,1,11.92-10.23c7.93-5.36,17.55-9.62,19.81-10.22,4.12-1.1,16.72-.48,25.57,1.36l.24.06L377.37,220S412.4,222.42,422.33,234.3Z"/><path class="cls-25" d="M285.21,217.33s-14.62,2.15-17.28,3.67c-1.85,1.05-9.72,7.47-9.72,7.47s5.43-.36,8.74-2.75S285.21,217.33,285.21,217.33Z"/><path class="cls-26" d="M406.14,217.31l4.38-93.08s5-19.5,12.33-24c8.68-5.31,20.61,4.53,20.61,4.53s6.1,14.54,2,83.17c-2.75,45.91-7,69.68-28.75,66.33-20.31-3.13-43.25-7.68-43.25-7.68l-8.15-31.32Z"/><path class="cls-27" d="M327.84,240.44a1.09,1.09,0,0,0,.08-.15l-.08-4.61H136.67v4.61a.24.24,0,0,0,0,.15l.49.86c2.45,4,6.86,4.72,11.91,4.72H315.44c5.05,0,9.45-.72,11.91-4.72Z"/><path class="cls-28" d="M281.77,241.22a.18.18,0,0,0,0,.13l.48.69a7.68,7.68,0,0,0,2.79,2.35h29.07c4.86,0,9.1-.58,11.46-3.81l.46-.71a.76.76,0,0,0,.08-.11l0-2.28h-44.3Z"/><rect class="cls-29" x="160.44" y="236.74" width="95.53" height="3.26"/><path class="cls-30" d="M280.71,235.51l-24.78-93.94a6.24,6.24,0,0,0-5.67-4.49H116.13a3.33,3.33,0,0,0-3.3,4.49l24.78,93.94Z"/><path class="cls-31" d="M204.86,186.3c1.27,4.79-1.6,8.68-6.39,8.68s-9.71-3.89-11-8.68,1.59-8.7,6.4-8.7S203.6,181.49,204.86,186.3Z"/><polygon class="cls-32" points="1.55 264.17 0.74 270.45 0 264.17 1.55 264.17"/><path class="cls-33" d="M405.13,256l-.54,4.17v.06l-.54,3.9-.81,6.28-1.08,8.21,0,.08-.62,4.69v0l-.91,7.07L392,356.41h0l-.22,1.67-.06.54-.38,2.89-.48,3.63v0l-2.07,15.78q-12.47.78-25,1l2.29-22.2.12-1.08.81-8,.54-5.1,5-48.45v0l.86-8.45.58-5.42,1.95-19,.1-1v0l.2-1.82v-.1l.54-5.14Z"/><polygon class="cls-34" points="403.25 270.46 390.8 365.15 376.04 263.1 376.76 256.05 401.56 256.05 403.25 270.46"/><path class="cls-35" d="M564.89,334.69c-2.54,1.43-5.09,2.81-7.7,4.12q-8.25,4.21-16.88,7.85l-10-76.21-.82-6.28L528.39,256h28.38l.84,8.13,1.91,18.54Z"/><path class="cls-36" d="M564.93,334.67l0,0c-2.54,1.43-5.09,2.81-7.7,4.12l-26.9-68.36.74-6.28,1-8.13h24.79l.72,7.06.12,1.07,1.91,18.54Z"/><path class="cls-37" d="M584.16,245.9v18.27H68.86A199.05,199.05,0,0,1,57.62,245.9Z"/><path class="cls-38" d="M359.15,245.9v18.27H68.86A199.05,199.05,0,0,1,57.62,245.9Z"/><path class="cls-39" d="M216,71.07c0-15.56-9.36-28.16-26.33-28.16s-26.33,12.6-26.33,28.16c0,12.12,8.51,16.34,15.73,26.4,1.43,2,0,9.8,0,9.8h21.21s-1.43-7.81,0-9.8C207.45,87.4,216,83.2,216,71.07Z"/><path class="cls-40" d="M178.65,107.27v2.93a8.78,8.78,0,0,0,8.78,8.77h4.39a8.78,8.78,0,0,0,8.78-8.77v-2.93Z"/><polygon class="cls-41" points="184.72 71.95 181.36 67.57 178.88 70.82 177.13 69.48 181.36 63.96 184.72 68.35 188.08 63.96 191.45 68.35 194.81 63.96 198.18 68.35 201.54 63.96 205.79 69.48 204.05 70.82 201.55 67.56 198.18 71.95 194.81 67.57 191.45 71.95 188.08 67.57 184.72 71.95"/><polygon class="cls-41" points="187.84 106.9 185.65 106.9 185.65 88.67 180.84 74.34 182.92 73.64 187.84 88.49 187.84 106.9"/><polygon class="cls-41" points="194.57 106.9 192.38 106.9 192.44 88.15 197.3 73.64 199.38 74.34 194.57 88.67 194.57 106.9"/><rect class="cls-41" x="201.42" y="27.49" width="15.3" height="2.19" transform="translate(91.39 203.74) rotate(-63.89)"/><rect class="cls-41" x="184.97" y="24.19" width="15.3" height="2.19" transform="translate(143.95 213.37) rotate(-82.97)"/><rect class="cls-41" x="173.42" y="19.29" width="2.19" height="15.3" transform="translate(-0.09 53.3) rotate(-17.36)"/><rect class="cls-42" x="184.63" y="108.78" width="13.71" height="2.28"/><rect class="cls-42" x="184.63" y="112.9" width="9.87" height="2.28"/><path class="cls-42" d="M182,117a8.68,8.68,0,0,0,5.47,2h4.39a8.7,8.7,0,0,0,5.47-2Z"/></g></g></svg>