<svg xmlns="http://www.w3.org/2000/svg" width="57.97" height="63.89" viewBox="0 0 57.97 63.89"><defs><style>.cls-1,.cls-3{fill:none;}.cls-1{stroke:#17274f;stroke-miterlimit:10;stroke-width:2.02px;}.cls-2{fill:#27a569;}.cls-3{stroke:#fff;stroke-linecap:round;stroke-linejoin:round;stroke-width:0.74px;}</style></defs><g id="Layer_2" data-name="Layer 2"><g id="Layer_1-2" data-name="Layer 1"><path class="cls-1" d="M43.37,3.42a44.14,44.14,0,0,0-28.77,0A14.48,14.48,0,0,1,1,15.94,54.94,54.94,0,0,0,7.35,41.42,49.07,49.07,0,0,0,27.93,62.2l1.05.55L30,62.2A49.07,49.07,0,0,0,50.62,41.42,54.94,54.94,0,0,0,57,15.94,14.48,14.48,0,0,1,43.37,3.42Z"/><path class="cls-2" d="M40.92,8.28a36.61,36.61,0,0,0-23.87,0A12,12,0,0,1,5.79,18.66,45.56,45.56,0,0,0,11,39.79,40.77,40.77,0,0,0,28.11,57l.87.46.88-.46A40.77,40.77,0,0,0,46.93,39.79a45.56,45.56,0,0,0,5.25-21.13A12,12,0,0,1,40.92,8.28Z"/><polygon class="cls-3" points="24.12 37.16 27.8 35.94 30.04 35.94 33.78 37.27 24.12 37.16"/><polygon class="cls-3" points="20.35 26.92 26.97 27.51 24.54 25.2 20.35 26.92"/><polygon class="cls-3" points="30.71 27.18 37.29 27.18 34.17 25.2 30.71 27.18"/><polyline class="cls-3" points="30.04 35.94 31.75 33.51 33.78 37.27 30.71 39.37 26.97 39.53 24.12 37.16 26.36 33.51 27.8 35.94"/><polygon class="cls-3" points="20.52 39.28 18.38 29.5 19.25 23.21 22.08 19.21 25.55 18.07 32.8 18.18 36.58 20.42 38.67 23.68 39.59 29.5 37.19 39.38 32.51 44.01 27.07 44.22 20.52 39.28"/><line class="cls-3" x1="24.54" y1="25.2" x2="22.08" y2="19.21"/><line class="cls-3" x1="34.17" y1="25.2" x2="36.58" y2="20.42"/><polyline class="cls-3" points="25.55 18.07 26.97 27.51 30.71 27.18 32.8 18.18"/><polyline class="cls-3" points="26.36 33.51 20.35 26.92 23.19 28.88 26.97 27.51 26.36 33.51 31.75 33.51 30.71 27.18 33.78 28.47 37.29 27.18 31.75 33.51"/><polyline class="cls-3" points="20.35 26.92 24.12 37.16 18.38 29.5 20.35 26.92 19.25 23.21"/><polyline class="cls-3" points="37.29 27.18 33.78 37.27 39.59 29.5 37.29 27.18 38.67 23.68"/><polyline class="cls-3" points="37.19 39.38 33.78 37.27 32.51 44.01 30.71 39.37 26.97 39.53 27.07 44.22 24.12 37.16 20.52 39.28"/><polyline class="cls-3" points="26.97 27.51 28.98 33.45 30.71 27.18"/></g></g></svg>