<svg xmlns="http://www.w3.org/2000/svg" width="252.59" height="86.68" viewBox="0 0 252.59 86.68"><defs><style>.cls-1{fill:#17274f;}.cls-2,.cls-3{fill:none;stroke:#27a569;stroke-linecap:round;stroke-width:5.18px;}.cls-2{stroke-miterlimit:10;}.cls-3{stroke-linejoin:round;}</style></defs><g id="Layer_2" data-name="Layer 2"><g id="Layer_3" data-name="Layer 3"><path class="cls-1" d="M105.39,64.21a32.37,32.37,0,0,1-5-.4,27.85,27.85,0,0,1-4.72-1.14A14.61,14.61,0,0,1,92.14,61L93,52.94a19.82,19.82,0,0,0,5.59,2.44,23.34,23.34,0,0,0,6.32.92,8.13,8.13,0,0,0,4.25-.92,2.88,2.88,0,0,0,1.49-2.59,2.44,2.44,0,0,0-.62-1.68,5.74,5.74,0,0,0-2-1.29,31.77,31.77,0,0,0-3.83-1.28Q98.18,46.8,95.48,44a10.41,10.41,0,0,1-2.7-7.48,10.15,10.15,0,0,1,3.83-8.36q3.84-3.06,10.46-3.06a26.17,26.17,0,0,1,6.35.79A19,19,0,0,1,118.78,28l-1.28,7.76a18.88,18.88,0,0,0-4.82-2,19.78,19.78,0,0,0-5.22-.76c-3.42,0-5.14,1.08-5.14,3.26a2.44,2.44,0,0,0,1.16,2.12A18.31,18.31,0,0,0,108,40.13q6.67,1.93,9.56,4.77a10,10,0,0,1,2.89,7.49,10.39,10.39,0,0,1-4,8.7Q112.51,64.21,105.39,64.21Z"/><path class="cls-1" d="M130.79,64.21a8.8,8.8,0,0,1-6.25-2.15,7.66,7.66,0,0,1-2.3-5.86A7.73,7.73,0,0,1,125,50a10.67,10.67,0,0,1,7.19-2.34,15.12,15.12,0,0,1,3,.32,14.9,14.9,0,0,1,2.89.86,4.94,4.94,0,0,0-1.58-3.66A6.55,6.55,0,0,0,132.28,44a13.76,13.76,0,0,0-7.81,2.42l-.6-6.87a15.83,15.83,0,0,1,4.43-1.78,21.27,21.27,0,0,1,5.31-.69q6.28,0,9.54,3.09t3.26,9V63.42h-8l-.1-2.48Q135.74,64.21,130.79,64.21Zm2.77-5.89a4.11,4.11,0,0,0,3.09-1.26,5.47,5.47,0,0,0,1.41-3.43,10.18,10.18,0,0,0-3.9-.74,4.53,4.53,0,0,0-2.75.74,2.33,2.33,0,0,0-1,2,2.47,2.47,0,0,0,.86,2A3.4,3.4,0,0,0,133.56,58.32Z"/><path class="cls-1" d="M152.15,45.08H148V37.91h4.11V35.44q0-5.83,2.94-9.07t8.28-3.24a18.5,18.5,0,0,1,3.48.35,11.09,11.09,0,0,1,2.8.84l-.89,7.16A9.77,9.77,0,0,0,167,31a11.05,11.05,0,0,0-1.78-.17,3.82,3.82,0,0,0-3.17,1.29,6.12,6.12,0,0,0-1,3.9v1.88h6.08v7.17H161V63.42h-8.89Z"/><path class="cls-1" d="M182.55,64.21a19.11,19.11,0,0,1-8.11-1.61A12.19,12.19,0,0,1,169.08,58a13.42,13.42,0,0,1-1.91-7.29,14.49,14.49,0,0,1,1.64-6.92,12,12,0,0,1,4.67-4.84,13.62,13.62,0,0,1,7-1.78,12.23,12.23,0,0,1,9.12,3.43Q193,44,193,49.87a14.07,14.07,0,0,1-.3,3.07H175.92a5.43,5.43,0,0,0,2.6,3.28,10.73,10.73,0,0,0,5.21,1.07,21.16,21.16,0,0,0,4.3-.45,17.68,17.68,0,0,0,3.86-1.23l.79,6.67A19.58,19.58,0,0,1,188,63.71,29.57,29.57,0,0,1,182.55,64.21Zm2.17-16.61a4.85,4.85,0,0,0-1.36-3.12,4.11,4.11,0,0,0-3-1.13c-2.5,0-4,1.41-4.6,4.25Z"/><path class="cls-1" d="M206.87,35.73l-9.15,4L196.19,32l12.41-5.39h7.31V63.42h-9Z"/><path class="cls-1" d="M239.94,56H223.43V48.88l15.81-22.24h9.25v22h4.1V56h-4.1v7.47h-8.55Zm0-7.26V37.27l-8.21,11.42Z"/><line class="cls-2" x1="27.72" y1="84.09" x2="53.07" y2="84.09"/><line class="cls-2" x1="40.36" y1="72.75" x2="40.36" y2="83.74"/><path class="cls-2" d="M64.11,24a26.51,26.51,0,1,1-37-11.17"/><path class="cls-3" d="M52.42,59.39l4.74,8.72h0A37.3,37.3,0,0,1,21.52,2.59l18.76,34.5"/><line class="cls-2" x1="55.31" y1="28.91" x2="40.56" y2="36.94"/><line class="cls-2" x1="35.79" y1="51.18" x2="26.34" y2="34.12"/><line class="cls-2" x1="55.66" y1="40.38" x2="46.21" y2="23.32"/></g></g></svg>