<svg xmlns="http://www.w3.org/2000/svg" width="320" height="65.06" viewBox="0 0 320 65.06"><defs><style>.cls-1{fill:#18264f;}.cls-2{fill:#27a569;}.cls-3{fill:#17274f;}</style></defs><g id="Layer_2" data-name="Layer 2"><g id="Layer_3" data-name="Layer 3"><g id="Layer_2-2" data-name="Layer 2"><g id="Layer_1-2" data-name="Layer 1-2"><path class="cls-1" d="M86.82,48.41a27,27,0,0,1-4.22-.33,25.17,25.17,0,0,1-4-1,12.75,12.75,0,0,1-3.06-1.43l.76-6.86A17.27,17.27,0,0,0,81,40.9a20.62,20.62,0,0,0,5.41.78,7,7,0,0,0,3.63-.78,2.44,2.44,0,0,0,1.26-2.21,2,2,0,0,0-.52-1.43,4.89,4.89,0,0,0-1.69-1.1,25.22,25.22,0,0,0-3.28-1.09q-5.19-1.49-7.49-3.9a8.87,8.87,0,0,1-2.3-6.38,8.63,8.63,0,0,1,3.28-7.12q3.28-2.63,8.93-2.62a23.11,23.11,0,0,1,5.43.65,16.86,16.86,0,0,1,4.59,1.82l-1.11,6.64a16.1,16.1,0,0,0-4.11-1.71,17.24,17.24,0,0,0-4.46-.65q-4.38,0-4.38,2.77a2.08,2.08,0,0,0,1,1.82,15.65,15.65,0,0,0,3.86,1.51q5.7,1.65,8.17,4.07a8.56,8.56,0,0,1,2.47,6.37,8.89,8.89,0,0,1-3.4,7.42Q92.92,48.4,86.82,48.41Z"/><path class="cls-1" d="M108.14,48.41a7.48,7.48,0,0,1-5.34-1.79,6.45,6.45,0,0,1-2-5,6.59,6.59,0,0,1,2.34-5.26,9.15,9.15,0,0,1,6.14-2,13.25,13.25,0,0,1,2.59.28,13,13,0,0,1,2.47.73A4.13,4.13,0,0,0,113,32.3a5.6,5.6,0,0,0-3.63-1,11.74,11.74,0,0,0-6.67,2.07l-.51-5.85A13.2,13.2,0,0,1,106,26a18.21,18.21,0,0,1,4.53-.58c3.58,0,6.29.87,8.15,2.62s2.78,4.28,2.78,7.59V47.74H114.6l-.09-2.1A7.56,7.56,0,0,1,108.14,48.41Zm2.36-5a3.52,3.52,0,0,0,2.63-1.07,4.72,4.72,0,0,0,1.21-2.94,8.66,8.66,0,0,0-3.33-.65,3.89,3.89,0,0,0-2.35.65,2,2,0,0,0-.86,1.68,2.1,2.1,0,0,0,.74,1.69A2.85,2.85,0,0,0,110.5,43.4Z"/><path class="cls-1" d="M126,32.12h-3.5V26H126v-2.1q0-5,2.51-7.73a9.12,9.12,0,0,1,7.07-2.75,15.68,15.68,0,0,1,3,.29,9.48,9.48,0,0,1,2.38.72l-.75,6.1a8.49,8.49,0,0,0-1.48-.39,9.66,9.66,0,0,0-1.52-.15,3.25,3.25,0,0,0-2.7,1.1,5.14,5.14,0,0,0-.89,3.32V26h5.19v6.11h-5.19V47.74H126Z"/><path class="cls-1" d="M151.57,48.41a16.29,16.29,0,0,1-6.92-1.36,10.43,10.43,0,0,1-4.6-3.94,11.49,11.49,0,0,1-1.63-6.21A12.48,12.48,0,0,1,139.81,31a10.23,10.23,0,0,1,4-4.12,11.62,11.62,0,0,1,6-1.52,10.45,10.45,0,0,1,7.79,2.92,10.83,10.83,0,0,1,2.89,7.94,12.27,12.27,0,0,1-.25,2.63H145.91a4.65,4.65,0,0,0,2.22,2.79,9.27,9.27,0,0,0,4.45.91,18.17,18.17,0,0,0,3.68-.38,14.59,14.59,0,0,0,3.28-1l.65,5.68a16.71,16.71,0,0,1-3.93,1.2A24.5,24.5,0,0,1,151.57,48.41Zm1.86-14.14a4.23,4.23,0,0,0-1.16-2.63,3.49,3.49,0,0,0-2.57-1c-2.14,0-3.46,1.2-3.94,3.62Z"/><path class="cls-1" d="M162.42,26h7.39l.08,3.25a6.42,6.42,0,0,1,2.19-2.72,5.62,5.62,0,0,1,3.25-.93,6.22,6.22,0,0,1,2.49.46l-.59,7.16a7,7,0,0,0-2.78-.55,4,4,0,0,0-3.32,1.46A7,7,0,0,0,170,38.45v9.29h-7.6Z"/><path class="cls-1" d="M189.48,48.41a27,27,0,0,1-4.22-.33,24.37,24.37,0,0,1-4-1,12.75,12.75,0,0,1-3.06-1.43l.76-6.86a17.2,17.2,0,0,0,4.77,2.08,20.21,20.21,0,0,0,5.41.78,7,7,0,0,0,3.63-.78A2.48,2.48,0,0,0,194,38.69a2.08,2.08,0,0,0-.53-1.43,4.84,4.84,0,0,0-1.69-1.1,25.73,25.73,0,0,0-3.28-1.09c-3.47-1-6-2.29-7.5-3.9a8.85,8.85,0,0,1-2.3-6.38A8.63,8.63,0,0,1,182,17.67q3.28-2.63,8.92-2.62a22.51,22.51,0,0,1,5.42.71,16.46,16.46,0,0,1,4.6,1.81l-1.09,6.59a16.69,16.69,0,0,0-4.12-1.71,17.16,17.16,0,0,0-4.45-.65q-4.4,0-4.39,2.77a2.1,2.1,0,0,0,1,1.82,16.15,16.15,0,0,0,3.87,1.52q5.68,1.65,8.16,4.06a8.53,8.53,0,0,1,2.47,6.38,8.83,8.83,0,0,1-3.4,7.41Q195.55,48.42,189.48,48.41Z"/><path class="cls-1" d="M214,48.41q-4.14,0-6.19-2.1t-2-6.44V32.12H202V26h3.72v-5.6h7.55V26h6.17v6.11h-6.17v6a4.48,4.48,0,0,0,.66,2.74,2.69,2.69,0,0,0,2.2.8,7.35,7.35,0,0,0,3.54-.8l.76,6.27a9.92,9.92,0,0,1-2.8.93A19,19,0,0,1,214,48.41Z"/><path class="cls-1" d="M221.68,26h7.39l.08,3.25a6.37,6.37,0,0,1,2.2-2.72,5.6,5.6,0,0,1,3.25-.93,6.26,6.26,0,0,1,2.49.46l-.59,7.16a7.18,7.18,0,0,0-2.78-.55,4,4,0,0,0-3.32,1.46,7,7,0,0,0-1.12,4.31v9.29h-7.6Z"/><path class="cls-1" d="M249.58,48.41a16.32,16.32,0,0,1-6.92-1.36,10.46,10.46,0,0,1-4.59-3.94,11.4,11.4,0,0,1-1.63-6.21,12.15,12.15,0,0,1,1.4-5.91,10.31,10.31,0,0,1,4-4.12,11.75,11.75,0,0,1,6-1.52,10.44,10.44,0,0,1,7.79,2.92,10.87,10.87,0,0,1,2.89,7.94,11.68,11.68,0,0,1-.26,2.63H243.92a4.65,4.65,0,0,0,2.22,2.79,9.29,9.29,0,0,0,4.46.91,18.15,18.15,0,0,0,3.67-.38,14.43,14.43,0,0,0,3.28-1l.66,5.68a16.75,16.75,0,0,1-4,1.22A24.86,24.86,0,0,1,249.58,48.41Zm1.88-14.14a4.12,4.12,0,0,0-1.16-2.63,3.56,3.56,0,0,0-2.55-1c-2.14,0-3.46,1.21-3.94,3.62Z"/><path class="cls-1" d="M273,48.41a16.29,16.29,0,0,1-6.92-1.36,10.43,10.43,0,0,1-4.6-3.94,11.48,11.48,0,0,1-1.62-6.21A12.25,12.25,0,0,1,261.26,31a10.3,10.3,0,0,1,4-4.13,11.72,11.72,0,0,1,6-1.52,10.52,10.52,0,0,1,7.8,2.92A10.87,10.87,0,0,1,282,36.2a13,13,0,0,1-.25,2.63H267.36a4.65,4.65,0,0,0,2.21,2.8,9.1,9.1,0,0,0,4.45.9,18.17,18.17,0,0,0,3.68-.38,14.59,14.59,0,0,0,3.28-1l.66,5.69a17,17,0,0,1-4,1.22A24.93,24.93,0,0,1,273,48.41Zm1.86-14.14a4.18,4.18,0,0,0-1.16-2.63,3.51,3.51,0,0,0-2.55-1c-2.14,0-3.45,1.2-3.94,3.62Z"/><path class="cls-1" d="M293.82,48.41c-2.75,0-4.82-.7-6.18-2.1s-2.05-3.56-2-6.44V32.12h-3.71V26h3.71v-5.6h7.56V26h6.16v6.11h-6.16v6a4.48,4.48,0,0,0,.66,2.74,2.69,2.69,0,0,0,2.2.8,7.38,7.38,0,0,0,3.54-.8l.76,6.27a10,10,0,0,1-2.81.93A19,19,0,0,1,293.82,48.41Z"/><path class="cls-1" d="M310.2,48.41a20.21,20.21,0,0,1-5-.59,11.27,11.27,0,0,1-3.78-1.55l.85-5.52a12.79,12.79,0,0,0,3.54,1.58,14.17,14.17,0,0,0,3.88.57c1.84,0,2.75-.44,2.75-1.31a1.16,1.16,0,0,0-.66-1.05,11.18,11.18,0,0,0-2.57-.89,12.73,12.73,0,0,1-5.73-2.74,6.24,6.24,0,0,1-1.71-4.59,6,6,0,0,1,2.49-5.1,11.29,11.29,0,0,1,6.84-1.85,20.28,20.28,0,0,1,4.33.46A12.44,12.44,0,0,1,319,27.1l-.77,5.43A15.73,15.73,0,0,0,315,31.32a13.9,13.9,0,0,0-3.33-.44c-1.55,0-2.33.42-2.33,1.26a1.2,1.2,0,0,0,.66,1.08,11.1,11.1,0,0,0,2.57.86,12.17,12.17,0,0,1,5.7,2.74A6.39,6.39,0,0,1,320,41.53a5.88,5.88,0,0,1-2.53,5.09A12.64,12.64,0,0,1,310.2,48.41Z"/><path class="cls-1" d="M53.39,17.48,53.09,15l-2.42-.72A53.9,53.9,0,0,1,39.51,9.47,58.42,58.42,0,0,1,29.42,2.33L26.84,0,24.25,2.33A57.89,57.89,0,0,1,14.16,9.47,53.59,53.59,0,0,1,3,14.24L.58,15l-.3,2.52a47.23,47.23,0,0,0,0,10.63c.17,1.38.4,2.83.72,4.33a42.86,42.86,0,0,0,5.62,14,27.09,27.09,0,0,0,2.16,3c.39.47.79.94,1.21,1.39s1,1.09,1.56,1.61c.05-.28.1-.66.19-1.09a.36.36,0,0,1,.05-.22c0-.08,0-.16,0-.25a.53.53,0,0,0,.05-.25l.15-.65c0-.09,0-.18.06-.28.07-.27.14-.58.22-.88l.06-.22a43.51,43.51,0,0,1,5.32-12.3c7-10.85,17.94-16.41,32.57-16.54a44.31,44.31,0,0,1-1.77,15.57l3,1.31A47.3,47.3,0,0,0,53.39,17.48Zm-49.85.37,0-.37.36-.1a56.59,56.59,0,0,0,11.82-5.06A61.47,61.47,0,0,0,26.45,4.76l.39-.35.38.35a59.61,59.61,0,0,0,9,6.6c-.85,0-1.72,0-2.62,0A41.55,41.55,0,0,0,16,15.56,46.68,46.68,0,0,0,3.34,24.81,41.5,41.5,0,0,1,3.54,17.85Zm24.25,4.24A37.73,37.73,0,0,0,14.92,34.56a45.93,45.93,0,0,0-5,10.8c-.16-.24-.32-.48-.47-.72a38,38,0,0,1-2.82-5.4,24.7,24.7,0,0,1,4.78-8.34l-1.32-2.46a36.52,36.52,0,0,0-5.14,6.09,41.41,41.41,0,0,1-1.17-5.39c8.35-9.41,18.35-14.29,29.8-14.53h.85a42.94,42.94,0,0,1,12.67,1.94A43.2,43.2,0,0,0,27.79,22.09Z"/><path class="cls-2" d="M26.92,65.06l-1.31-.66A66.51,66.51,0,0,1,15.1,57.67l3.52-4.49a63.94,63.94,0,0,0,8.23,5.38c3.49-2.1,13.3-8.62,18.89-18.38l5,2.84C43,56.46,28.84,64.06,28.23,64.38Z"/><path class="cls-3" d="M19.33,23.94a42.15,42.15,0,0,0-5.25,4.17l-1.31-2a42.74,42.74,0,0,1,5.43-3.72Z"/></g></g></g></g></svg>