<svg xmlns="http://www.w3.org/2000/svg" width="67.61" height="59.61" viewBox="0 0 67.61 59.61"><defs><style>.cls-1{fill:#27a569;}.cls-2,.cls-3{fill:none;}.cls-2,.cls-3,.cls-4{stroke:#18264f;stroke-width:2.02px;}.cls-2{stroke-linecap:round;stroke-linejoin:round;}.cls-3,.cls-4{stroke-miterlimit:10;}.cls-4{fill:#fff;}</style></defs><g id="Layer_2" data-name="Layer 2"><g id="Layer_1-2" data-name="Layer 1"><path class="cls-1" d="M18.89,2a2,2,0,1,1-2,2,2,2,0,0,1,2-2m0-2a4,4,0,1,0,4,4,4,4,0,0,0-4-4Z"/><path class="cls-1" d="M4,27.85a2,2,0,1,1-2,2,2,2,0,0,1,2-2m0-2a4,4,0,1,0,4,4,4,4,0,0,0-4-4Z"/><path class="cls-1" d="M63.63,27.85a2,2,0,1,1-2,2,2,2,0,0,1,2-2m0-2a4,4,0,1,0,4,4,4,4,0,0,0-4-4Z"/><path class="cls-1" d="M48.72,53.68a2,2,0,1,1-2,2,2,2,0,0,1,2-2m0-2a4,4,0,1,0,4,4,4,4,0,0,0-4-4Z"/><path class="cls-1" d="M18.89,53.68a2,2,0,1,1-2,2,2,2,0,0,1,2-2m0-2a4,4,0,1,0,4,4,4,4,0,0,0-4-4Z"/><path class="cls-1" d="M48.72,2a2,2,0,1,1-2,2,2,2,0,0,1,2-2m0-2a4,4,0,1,0,4,4,4,4,0,0,0-4-4Z"/><polyline class="cls-2" points="42.25 3.98 42.25 3.98 25.35 3.98"/><line class="cls-2" x1="60.4" y1="24.22" x2="51.94" y2="9.57"/><line class="cls-2" x1="51.94" y1="50.05" x2="60.4" y2="35.4"/><polyline class="cls-2" points="25.35 55.64 25.35 55.64 42.25 55.64"/><line class="cls-2" x1="7.2" y1="35.4" x2="15.66" y2="50.05"/><line class="cls-2" x1="15.66" y1="9.57" x2="7.2" y2="24.22"/><path class="cls-3" d="M33.8,16.39h0a5,5,0,0,0-5,5v1.87h10V21.4A5,5,0,0,0,33.8,16.39Z"/><rect class="cls-4" x="25.35" y="23.27" width="16.9" height="17.47"/><path class="cls-3" d="M36.23,33.22a2.43,2.43,0,1,0-4.86,0"/></g></g></svg>